{"glyphs":{"0":{"ha":986,"x_min":0,"x_max":0,"o":"m 185 154 l 185 154 b 443 0 243 67 333 0 l 443 0 b 700 154 550 0 642 67 l 700 154 b 793 486 760 243 793 360 l 793 486 b 700 818 793 614 760 729 l 700 818 b 443 972 642 907 550 972 l 443 972 b 185 818 333 972 243 907 l 185 818 b 90 486 124 729 92 614 l 90 486 b 185 154 92 360 124 243 z m 572 240 l 572 240 b 443 154 532 181 486 154 l 443 154 b 311 240 400 154 353 181 l 311 240 b 244 486 272 299 244 388 l 244 486 b 311 733 244 586 272 674 l 311 733 b 443 818 353 792 400 819 l 443 818 b 572 733 486 819 532 792 l 572 733 b 639 486 611 674 639 586 l 639 486 b 572 240 639 388 611 299 z "},"1":{"ha":465,"x_min":0,"x_max":0,"o":"m 379 900 b 376 910 376 903 376 906 b 375 917 376 911 375 914 b 372 924 374 918 374 921 b 369 931 372 926 371 928 b 368 935 369 932 368 933 b 367 938 368 935 367 938 b 361 943 365 939 363 942 b 357 949 360 946 358 947 b 351 954 356 950 354 953 b 346 958 350 956 347 957 b 340 963 343 960 342 961 b 332 967 338 963 336 964 b 326 968 331 968 328 968 b 318 971 324 969 322 971 b 313 972 317 971 314 971 b 303 972 310 972 307 972 b 301 972 303 972 301 972 b 297 972 300 972 299 972 b 288 971 294 972 290 972 b 282 969 286 971 283 971 b 274 968 279 969 276 968 b 267 964 271 967 269 964 b 261 961 265 963 263 963 l 90 860 b 65 756 54 839 42 790 b 131 717 79 731 104 717 b 169 728 143 717 157 719 l 225 760 l 225 76 b 301 0 225 33 258 0 b 379 76 343 0 379 33 l 379 896 b 379 900 379 897 379 899 z "},"2":{"ha":819,"x_min":0,"x_max":0,"o":"m 642 154 l 346 154 l 608 392 b 718 639 681 457 718 549 b 632 863 718 718 690 800 b 385 972 567 935 475 972 b 161 886 306 972 224 944 l 118 847 b 113 739 86 818 85 771 b 221 733 142 707 189 704 l 264 772 b 385 818 299 803 342 818 b 518 760 433 818 482 800 b 564 639 549 725 564 683 b 506 506 564 589 546 542 l 94 133 b 90 25 64 104 61 57 b 147 0 104 8 126 0 b 149 0 147 0 149 0 b 150 0 150 0 150 0 l 642 0 b 718 76 685 0 718 33 b 642 154 718 119 685 154 z "},"3":{"ha":847,"x_min":0,"x_max":0,"o":"m 519 658 l 694 839 b 708 858 700 844 704 851 b 718 896 714 869 718 882 b 639 974 718 939 683 974 l 229 974 b 151 896 186 974 151 939 b 229 817 151 851 186 817 l 454 817 l 313 672 b 315 561 283 640 283 592 b 317 560 315 560 315 560 b 374 535 331 543 351 533 b 506 479 422 533 469 517 b 561 347 543 443 561 396 b 506 214 561 299 543 251 b 372 160 468 178 421 160 b 240 214 324 160 276 178 b 129 214 210 244 160 244 b 129 103 99 183 99 133 b 372 1 196 36 285 1 b 372 1 372 1 372 1 b 617 103 461 1 550 36 b 718 347 685 171 718 260 b 617 590 718 435 685 524 b 519 658 589 619 556 642 z "},"4":{"ha":922,"x_min":0,"x_max":0,"o":"m 756 335 l 742 335 l 742 896 b 742 900 742 897 742 899 b 740 907 742 903 740 904 b 739 915 740 911 740 913 b 738 921 739 917 738 919 b 735 929 736 925 736 926 b 732 935 733 931 732 933 b 726 942 729 939 728 940 b 722 947 725 943 724 946 b 717 953 721 949 719 950 b 713 956 717 954 714 956 b 711 957 713 957 711 957 b 704 961 708 958 707 960 b 697 967 703 963 700 964 b 692 968 696 967 693 968 b 683 971 689 969 685 969 b 676 972 681 971 679 971 b 668 972 675 972 671 972 b 665 972 667 972 667 972 b 663 972 664 972 663 972 b 653 972 660 972 656 972 b 647 971 651 971 649 971 b 639 968 643 969 640 969 b 633 964 636 968 635 967 b 625 961 629 964 628 963 b 619 957 624 960 621 958 b 613 953 618 956 617 954 b 608 947 611 950 610 949 b 606 944 607 946 607 944 l 92 306 b 104 199 65 272 69 225 b 151 182 118 186 135 182 b 153 182 151 182 153 182 b 154 182 153 182 154 182 l 589 182 l 589 76 b 665 0 589 33 622 0 b 742 76 708 0 742 33 l 742 182 l 756 182 b 833 258 799 182 833 215 b 756 335 833 300 799 335 z m 589 335 l 313 335 l 589 678 l 589 335 z "},"5":{"ha":840,"x_min":0,"x_max":0,"o":"m 360 690 b 267 678 329 690 297 686 l 283 815 l 625 815 b 704 893 669 815 704 851 b 625 972 704 938 669 972 l 215 972 b 179 964 201 972 190 969 b 175 961 178 963 176 963 b 169 958 174 960 172 960 b 135 903 151 946 139 926 l 93 543 b 93 519 92 536 92 528 b 94 517 93 518 94 518 b 96 507 94 514 96 511 b 99 500 97 506 99 503 b 100 496 100 500 100 499 b 115 478 106 490 110 483 b 226 478 146 447 196 447 b 360 532 263 515 313 532 b 492 478 408 532 456 515 b 547 344 529 442 547 394 b 492 213 547 297 528 249 b 360 157 456 175 407 157 b 226 213 310 157 263 175 b 115 213 196 243 144 243 b 115 101 83 181 83 131 b 357 0 181 33 271 0 b 360 0 357 0 357 0 b 603 101 447 0 536 33 b 704 344 669 168 704 257 b 603 589 704 433 671 522 b 360 690 536 657 447 690 z "},"6":{"ha":892,"x_min":0,"x_max":0,"o":"m 428 672 b 294 644 381 672 335 663 b 313 681 300 657 306 669 b 400 778 336 722 365 754 b 531 817 436 800 478 815 b 606 897 574 821 607 856 b 525 971 603 940 568 972 b 317 906 446 968 375 944 b 138 668 229 847 172 760 b 89 383 103 576 89 476 b 92 304 89 357 90 331 b 93 301 93 303 93 303 b 428 0 110 132 253 0 b 765 336 614 0 765 150 b 428 672 765 522 614 672 z m 428 154 b 246 336 326 154 246 235 b 428 519 246 436 326 519 b 611 336 529 519 611 436 b 428 154 611 235 529 154 z "},"7":{"ha":815,"x_min":0,"x_max":0,"o":"m 717 881 b 717 911 718 890 718 901 b 714 918 715 914 715 915 b 713 925 714 919 713 924 b 707 932 710 928 708 929 b 704 939 707 933 706 938 b 700 944 703 940 701 942 b 694 950 699 946 696 947 b 689 956 693 953 692 954 b 685 960 688 957 686 958 b 656 971 675 964 665 969 b 642 972 650 972 646 972 b 642 972 642 972 642 972 l 642 972 b 642 972 642 972 642 972 l 165 972 b 89 896 124 972 89 939 b 165 818 89 854 124 818 l 524 818 l 224 106 b 265 6 208 68 226 24 b 294 0 275 1 286 0 b 365 46 326 0 354 17 l 713 867 b 717 881 714 871 715 875 z "},"8":{"ha":875,"x_min":0,"x_max":0,"o":"m 592 607 b 638 744 621 644 638 693 b 410 972 638 869 535 972 b 179 744 282 972 179 869 b 225 607 179 693 196 644 b 76 331 135 547 76 446 b 410 0 76 149 226 0 b 740 331 592 0 740 149 b 592 607 740 446 681 547 z m 410 821 b 486 744 451 821 486 786 b 410 665 486 701 451 665 b 331 744 365 665 331 701 b 410 821 331 786 365 821 z m 410 151 b 228 331 310 151 229 232 b 410 511 229 429 310 511 b 589 331 508 511 589 429 b 410 151 589 232 508 151 z "},"9":{"ha":892,"x_min":0,"x_max":0,"o":"m 429 300 b 563 328 476 300 522 310 b 544 292 557 315 551 303 b 457 194 521 250 492 218 b 326 156 421 172 379 157 b 251 75 283 151 250 117 b 332 1 254 32 289 0 b 540 67 411 4 482 28 b 719 304 628 125 685 213 b 768 589 754 396 768 496 b 765 668 768 615 767 642 b 764 671 764 669 764 669 b 429 972 747 840 604 972 b 92 636 243 972 92 822 b 429 300 92 450 243 300 z m 429 818 b 611 636 531 818 611 738 b 429 453 611 536 531 453 b 246 636 328 453 246 536 b 429 818 246 738 328 818 z "},"\u0000":{"ha":694,"x_min":0,"x_max":0,"o":""},"B":{"ha":825,"x_min":0,"x_max":0,"o":"m 221 0 b 225 1 222 0 222 1 b 226 0 225 1 225 0 l 472 0 b 769 299 636 0 769 133 b 629 550 769 404 713 497 b 682 708 663 594 682 649 b 418 972 682 854 564 972 l 226 972 b 225 972 225 972 225 972 b 221 972 222 972 222 972 b 144 896 179 972 144 939 l 144 76 b 221 0 144 35 179 0 z m 299 818 l 418 818 b 528 708 479 818 528 769 b 418 596 528 647 479 596 l 299 596 l 299 818 z m 299 442 l 472 442 b 615 299 551 440 615 378 b 472 154 615 218 551 156 l 299 154 l 299 442 z "},"C":{"ha":1071,"x_min":0,"x_max":0,"o":"m 611 0 b 932 108 733 0 844 40 b 946 219 965 135 971 185 b 835 235 918 253 867 258 b 611 158 772 185 697 158 b 361 258 515 158 426 197 b 260 500 299 319 260 406 b 361 742 260 594 299 678 b 611 842 426 803 515 842 b 835 765 697 842 774 815 b 946 781 867 740 918 746 b 932 892 971 815 965 864 b 611 1000 844 960 733 1000 b 101 500 333 999 103 775 b 611 0 103 224 333 0 z "},"D":{"ha":999,"x_min":0,"x_max":0,"o":"m 221 0 b 221 0 221 0 221 0 b 221 0 221 0 221 0 l 385 0 b 869 488 653 0 869 218 b 385 972 869 754 653 972 l 221 972 b 221 972 221 972 221 972 b 221 972 221 972 221 972 b 144 896 178 972 144 939 l 144 76 b 221 0 144 35 178 0 z m 299 818 l 385 818 b 715 488 568 818 715 669 b 385 154 715 303 568 156 l 299 154 l 299 818 z "},"E":{"ha":824,"x_min":0,"x_max":0,"o":"m 221 0 b 222 1 221 0 222 1 b 225 0 222 1 222 0 l 675 0 b 751 76 715 0 751 35 b 675 154 751 119 715 154 l 299 154 l 299 410 l 622 410 b 699 488 664 410 699 444 b 622 564 699 528 664 564 l 299 564 l 299 818 l 675 818 b 751 896 715 818 751 853 b 675 972 751 939 715 972 l 225 972 b 222 972 222 972 222 972 b 221 972 222 972 221 972 b 144 896 178 972 144 939 l 144 76 b 221 0 144 35 178 0 z "},"F":{"ha":840,"x_min":0,"x_max":0,"o":"m 221 0 b 299 76 264 0 299 35 l 299 410 l 622 410 b 699 488 664 410 699 444 b 622 564 699 528 664 564 l 299 564 l 299 818 l 675 818 b 751 896 715 818 751 853 b 675 972 751 938 715 972 l 225 972 b 222 972 222 972 222 972 b 221 972 222 972 221 972 b 144 896 178 972 144 938 l 144 76 b 221 0 144 35 178 0 z "},"G":{"ha":1131,"x_min":0,"x_max":0,"o":"m 614 0 b 929 108 732 0 842 40 b 956 142 943 118 951 129 b 956 143 956 142 956 143 b 958 150 957 146 957 147 b 963 174 960 158 963 164 l 963 481 b 882 558 963 525 926 558 b 881 558 882 558 882 558 b 879 558 881 558 881 558 l 606 558 b 526 481 563 558 526 525 b 606 401 526 438 563 401 l 804 401 l 804 211 b 614 158 749 179 683 158 b 364 260 514 158 426 196 b 260 499 299 322 260 407 b 364 740 260 593 299 678 b 614 842 426 804 514 842 b 833 767 697 842 774 813 b 946 779 868 739 919 746 b 931 892 972 814 967 865 b 614 1000 844 960 732 1000 b 101 499 332 1000 101 778 b 614 0 101 221 332 0 b 614 0 614 0 614 0 z "},"H":{"ha":985,"x_min":0,"x_max":0,"o":"m 221 0 b 299 76 264 0 299 33 l 299 410 l 658 410 l 658 76 b 735 0 658 33 692 0 b 813 76 778 0 813 33 l 813 896 b 735 972 813 939 778 972 b 658 896 692 972 658 939 l 658 563 l 299 563 l 299 896 b 221 972 299 939 264 972 b 144 896 178 972 144 939 l 144 76 b 221 0 144 33 178 0 z "},"I":{"ha":424,"x_min":0,"x_max":0,"o":"m 154 76 l 154 76 b 231 0 154 33 188 0 l 231 0 b 308 76 272 0 308 33 l 308 896 l 308 896 b 231 972 308 939 272 972 l 231 972 b 154 896 188 972 154 939 l 154 76 z "},"J":{"ha":825,"x_min":0,"x_max":0,"o":"m 121 335 b 72 239 82 324 58 281 b 400 0 117 100 247 0 b 746 344 590 0 746 154 l 746 896 b 669 972 746 939 711 972 b 592 896 626 972 592 939 l 592 344 b 400 154 592 240 506 154 b 218 286 315 154 243 210 b 121 335 206 326 163 349 z "},"K":{"ha":993,"x_min":0,"x_max":0,"o":"m 221 0 b 297 76 264 0 297 35 l 297 274 l 442 421 l 742 28 b 799 0 757 10 778 0 b 847 18 817 0 833 6 b 858 125 881 44 886 93 l 550 529 l 856 833 b 856 942 885 864 885 913 b 747 942 825 972 778 972 l 297 490 l 297 889 b 221 965 297 929 264 965 b 144 889 178 965 144 929 l 144 76 b 221 0 144 35 178 0 z "},"L":{"ha":782,"x_min":0,"x_max":0,"o":"m 221 0 b 222 0 221 0 221 0 b 225 0 222 0 222 0 l 675 0 b 751 76 715 0 751 35 b 675 154 751 119 715 154 l 299 154 l 299 896 b 221 972 299 938 264 972 b 144 896 178 972 144 938 l 144 76 b 221 0 144 35 178 0 z "},"M":{"ha":1172,"x_min":0,"x_max":0,"o":"m 903 972 b 903 972 903 972 903 972 b 903 972 903 972 903 972 b 901 972 901 972 901 972 b 839 940 876 972 854 961 l 563 557 l 286 940 b 225 972 272 961 247 972 b 221 972 222 972 222 972 b 144 896 179 972 144 938 l 144 76 b 221 0 144 35 179 0 b 299 76 264 0 299 35 l 299 661 l 497 383 b 561 351 513 363 536 351 b 563 351 561 351 563 351 b 564 351 563 351 564 351 b 626 383 589 351 611 363 l 826 661 l 826 76 b 903 0 826 35 860 0 b 981 76 944 0 981 35 l 981 896 b 903 972 981 938 944 971 z "},"N":{"ha":1071,"x_min":0,"x_max":0,"o":"m 297 653 l 742 36 b 749 28 743 33 746 31 b 806 0 763 11 783 0 b 882 76 847 0 882 35 l 882 883 b 806 958 882 924 847 958 b 731 883 764 958 731 924 l 731 311 l 282 932 b 176 949 258 965 211 972 b 146 885 156 933 144 908 b 146 883 146 883 146 883 l 146 76 b 222 0 146 35 179 0 b 297 76 263 0 297 35 l 297 653 z "},"O":{"ha":1181,"x_min":0,"x_max":0,"o":"m 579 1000 b 239 851 446 1000 324 943 b 101 500 153 760 101 638 b 239 149 101 363 153 239 b 579 0 324 58 446 0 b 579 0 579 0 579 0 b 911 149 707 0 829 58 b 1051 500 997 239 1051 363 b 911 851 1051 638 997 760 b 579 1000 829 943 707 1000 z m 799 258 b 579 158 740 196 663 158 b 354 258 490 158 413 196 b 260 500 296 318 260 406 b 354 743 260 594 296 682 b 579 842 413 806 490 842 b 799 743 663 842 740 806 b 893 500 856 682 893 594 b 799 258 893 406 856 318 z "},"P":{"ha":810,"x_min":0,"x_max":0,"o":"m 768 674 b 469 972 768 839 635 972 l 222 972 b 222 972 222 972 222 972 b 221 972 222 972 221 972 b 144 896 179 972 144 939 l 144 76 b 221 0 144 35 179 0 b 299 76 264 0 299 35 l 299 378 l 469 378 b 768 674 635 378 768 511 z m 299 818 l 469 818 b 614 674 550 818 613 754 b 469 532 613 596 550 532 l 299 532 l 299 818 z "},"Q":{"ha":1172,"x_min":0,"x_max":0,"o":"m 1140 -22 b 1028 -8 1113 13 1063 19 b 892 -61 971 -51 932 -61 b 736 -11 847 -61 794 -43 l 768 1 b 922 111 826 29 879 67 b 1064 474 1011 206 1064 333 b 922 832 1064 613 1011 739 b 578 986 838 928 714 986 b 231 832 442 986 319 928 b 92 474 146 739 92 613 b 231 111 92 333 146 206 b 385 6 276 68 329 32 l 381 3 b 343 -104 342 -17 322 -62 b 363 -136 347 -118 356 -126 b 365 -137 364 -136 364 -136 b 374 -140 369 -139 372 -139 b 454 -144 394 -157 426 -160 l 454 -144 b 553 -121 460 -140 507 -121 b 638 -142 581 -121 610 -126 b 892 -225 713 -186 794 -225 b 896 -225 892 -225 896 -225 b 1125 -137 969 -225 1049 -196 b 1140 -22 1163 -107 1168 -57 z m 256 474 b 351 721 256 572 292 660 b 578 822 408 785 488 822 b 807 721 667 822 746 785 b 903 474 867 660 903 572 b 807 224 903 375 867 288 b 578 124 746 161 667 124 b 351 224 488 124 408 161 b 256 474 292 288 256 375 z "},"R":{"ha":868,"x_min":0,"x_max":0,"o":"m 739 163 b 733 244 736 176 732 203 b 688 394 733 303 715 354 b 639 446 674 415 657 432 b 747 674 706 501 747 582 b 450 972 747 839 615 972 l 203 972 b 203 972 203 972 203 972 b 201 972 201 972 201 972 b 125 896 158 972 125 939 l 125 76 b 201 0 125 35 158 0 b 279 76 244 0 279 35 l 279 378 l 443 378 b 521 344 456 375 492 364 b 563 304 538 333 554 319 b 579 244 572 289 578 271 b 608 78 579 168 589 118 b 653 29 619 58 635 40 b 707 14 672 17 693 14 b 708 14 708 14 708 14 b 739 18 722 14 733 17 b 788 115 779 32 801 75 b 739 163 779 139 761 156 z m 450 532 l 279 532 l 279 818 l 450 818 b 593 674 529 818 593 754 b 450 532 593 596 529 532 z "},"S":{"ha":926,"x_min":0,"x_max":0,"o":"m 125 140 l 125 140 b 481 1 204 78 331 3 l 481 1 b 738 81 579 1 669 31 l 738 81 b 857 296 807 131 857 207 l 857 296 b 824 414 857 339 844 381 l 824 414 b 685 529 792 465 742 501 l 685 529 b 493 588 629 556 564 574 l 493 588 l 490 588 l 490 588 b 317 649 415 601 353 624 l 317 649 b 279 685 299 661 286 674 l 279 685 b 269 724 272 696 269 707 l 269 724 b 322 811 269 753 285 783 l 322 811 b 478 858 360 839 415 858 l 478 858 b 701 769 563 858 631 817 l 701 769 b 800 790 735 747 779 757 l 800 790 b 781 889 822 822 813 867 l 781 889 b 478 1000 710 935 611 1000 l 478 1000 b 238 926 388 1000 303 974 l 238 926 b 126 724 174 879 126 807 l 126 724 b 158 610 126 682 138 643 l 158 610 b 288 501 189 561 235 526 l 288 501 b 467 447 340 476 401 460 l 467 447 l 469 447 l 469 447 b 660 382 551 432 619 408 l 660 382 b 701 340 681 368 693 354 l 701 340 b 714 296 710 326 714 314 l 714 296 b 654 196 714 261 696 226 l 654 196 b 481 144 613 165 550 144 l 481 144 b 215 251 382 143 276 201 l 215 251 b 114 242 185 276 139 272 l 114 242 b 125 140 90 211 94 165 z "},"T":{"ha":900,"x_min":0,"x_max":0,"o":"m 815 896 b 739 972 815 939 781 972 l 146 972 b 69 896 103 972 69 939 b 146 818 69 854 103 818 l 365 818 l 365 76 b 442 0 365 33 400 0 b 518 76 485 0 518 33 l 518 818 l 739 818 b 815 896 781 818 815 854 z "},"U":{"ha":1131,"x_min":0,"x_max":0,"o":"m 949 401 l 949 896 b 872 972 949 939 915 972 b 794 896 829 972 794 939 l 794 401 b 547 154 794 265 685 154 b 300 401 411 154 300 265 l 300 896 b 222 972 300 939 264 972 b 146 896 179 972 146 939 l 146 401 b 547 0 146 181 324 0 b 949 401 769 0 949 181 z "},"V":{"ha":1042,"x_min":0,"x_max":0,"o":"m 463 14 b 475 6 467 11 472 7 b 476 6 476 6 476 6 b 478 4 476 6 478 6 b 489 1 481 4 486 3 b 492 1 490 1 492 1 b 506 0 496 0 501 0 b 519 1 510 0 514 0 b 522 1 521 1 522 1 b 533 4 526 3 529 4 b 536 6 535 6 535 6 b 536 6 536 6 536 6 b 547 13 540 7 544 11 b 550 14 550 14 550 14 b 558 21 553 17 556 18 b 561 25 560 22 560 22 b 568 33 563 28 567 31 b 569 35 569 33 569 33 b 575 46 572 38 574 43 l 918 857 b 876 956 933 894 915 940 b 776 915 839 972 793 954 l 506 272 l 235 915 b 136 956 218 954 174 972 b 94 857 96 940 78 894 l 435 46 b 442 35 438 43 440 38 b 443 33 442 33 443 33 b 450 25 444 31 447 28 b 451 21 450 22 451 22 b 461 14 456 18 458 17 b 463 14 463 14 463 14 z "},"W":{"ha":1531,"x_min":0,"x_max":0,"o":"m 1386 956 b 1285 915 1346 972 1301 954 l 1014 272 l 835 699 b 763 746 821 729 792 746 b 690 699 732 746 703 729 l 511 272 l 239 915 b 140 956 224 954 178 972 b 99 857 100 940 83 894 l 440 47 b 447 35 443 43 444 38 b 447 33 447 35 447 33 b 454 25 450 31 451 28 b 457 21 456 22 456 22 b 467 14 461 19 463 17 b 468 14 467 14 467 14 b 481 6 471 11 476 7 b 481 6 481 6 481 6 b 483 4 482 6 482 6 b 493 1 486 4 489 3 b 497 1 494 1 496 1 b 511 0 501 0 507 0 b 511 0 511 0 511 0 b 511 0 511 0 511 0 b 511 0 511 0 511 0 b 524 1 515 0 519 0 b 528 1 525 1 526 1 b 539 4 531 3 533 4 b 540 6 539 6 540 6 b 542 6 540 6 540 6 b 553 14 544 7 549 11 b 556 14 553 14 553 14 b 564 21 558 17 561 19 b 565 25 564 22 565 22 b 574 33 568 28 571 31 b 575 35 574 33 574 35 b 581 47 576 38 579 43 l 763 478 l 944 47 b 950 35 946 43 947 38 b 953 33 950 35 950 33 b 958 25 954 31 957 28 b 961 21 960 22 960 22 b 971 14 964 19 967 17 b 972 14 971 14 971 14 b 985 6 975 11 979 7 b 985 6 985 6 985 6 b 988 4 986 6 986 6 b 997 1 990 4 993 3 b 1001 1 997 1 999 1 b 1014 0 1006 0 1010 0 b 1028 1 1019 0 1024 0 b 1031 1 1028 1 1029 1 b 1042 4 1035 3 1039 4 b 1043 6 1042 6 1043 6 b 1044 6 1043 6 1044 6 b 1057 14 1050 7 1053 11 b 1058 14 1057 14 1058 14 b 1068 21 1061 17 1065 19 b 1069 25 1068 22 1069 22 b 1076 33 1072 28 1075 31 b 1078 35 1076 33 1078 35 b 1085 47 1081 38 1083 43 l 1425 857 b 1386 956 1442 894 1424 940 z "},"X":{"ha":1003,"x_min":0,"x_max":0,"o":"m 824 946 b 717 929 789 972 743 965 l 483 610 l 249 929 b 143 946 225 965 176 972 b 125 840 108 922 101 875 l 389 482 l 125 121 b 143 15 101 88 108 39 b 188 0 156 6 171 0 b 249 32 211 0 233 13 l 483 353 l 717 32 b 779 0 732 13 754 0 b 824 15 794 0 810 6 b 840 121 858 39 864 88 l 576 482 l 840 840 b 824 946 864 875 858 922 z "},"Y":{"ha":839,"x_min":0,"x_max":0,"o":"m 804 947 b 697 931 771 972 724 965 l 460 606 l 222 931 b 117 947 199 965 151 972 b 101 842 82 922 75 875 l 383 451 l 383 76 b 460 0 383 33 419 0 b 536 76 503 0 536 33 l 536 451 l 821 842 b 804 947 844 875 838 922 z "},"Z":{"ha":926,"x_min":0,"x_max":0,"o":"m 838 853 b 842 860 839 854 840 857 b 844 864 843 861 843 863 b 847 872 846 868 846 869 b 850 881 847 875 850 876 b 851 886 850 882 850 883 b 851 896 851 889 851 892 b 851 896 851 896 851 896 b 851 901 851 899 851 900 b 850 910 851 904 851 906 b 847 917 850 913 850 914 b 846 925 847 918 846 921 b 843 931 844 926 843 929 b 839 938 842 932 840 935 b 833 943 838 940 836 942 b 829 949 832 944 831 947 b 824 954 828 950 826 953 b 819 958 822 956 822 957 b 818 958 818 958 818 958 b 811 963 815 960 814 961 b 804 967 810 964 808 967 b 799 969 803 968 800 968 b 790 971 796 969 794 971 b 785 972 789 971 786 972 b 775 972 782 972 779 972 b 774 972 775 972 774 972 l 175 972 b 99 896 132 972 99 939 b 175 818 99 854 132 818 l 624 818 l 114 121 b 113 121 113 121 113 121 b 108 114 111 118 110 115 b 104 108 108 113 107 110 b 103 101 104 106 103 103 b 100 94 101 99 101 96 b 100 88 100 90 100 89 b 99 78 99 85 99 82 b 99 76 99 76 99 76 b 99 72 99 75 99 74 b 100 63 99 69 100 67 b 101 57 100 60 101 58 b 104 49 103 54 103 51 b 108 42 104 46 107 44 b 111 35 108 40 110 39 b 115 29 113 33 114 31 b 121 25 117 28 118 26 b 126 18 122 22 125 19 b 131 15 128 17 129 15 b 131 14 131 14 131 14 b 136 11 132 13 133 13 b 143 8 139 10 142 8 b 147 4 144 6 146 6 b 157 3 151 4 154 3 b 161 1 158 1 160 1 b 175 0 167 0 171 0 b 175 0 175 0 175 0 b 175 0 175 0 175 0 l 774 0 b 851 76 817 0 851 33 b 774 154 851 119 817 154 l 326 154 l 838 850 b 838 853 838 850 838 850 z "},"a":{"ha":860,"x_min":0,"x_max":0,"o":"m 717 619 b 643 694 717 661 683 694 b 571 633 607 694 579 668 b 386 694 518 671 456 694 b 150 590 292 694 210 654 b 56 346 90 528 56 442 b 150 101 56 251 90 165 b 386 0 210 39 292 0 b 386 0 386 0 386 0 b 571 60 456 0 518 22 b 643 0 579 26 607 0 b 717 74 683 0 717 33 l 717 346 b 717 346 717 346 717 346 b 717 346 717 346 717 346 l 717 619 z m 515 203 b 386 149 482 168 435 149 b 257 203 336 149 289 168 b 204 346 224 239 204 289 b 257 489 204 404 224 454 b 386 546 289 526 336 546 b 515 489 435 546 482 526 b 569 346 549 454 569 404 b 515 203 569 289 549 239 z "},"b":{"ha":917,"x_min":0,"x_max":0,"o":"m 129 75 b 204 0 129 35 163 0 b 278 60 242 0 271 26 b 467 0 331 24 397 0 b 804 346 654 0 804 158 b 467 694 804 536 654 694 b 281 636 399 694 332 672 l 281 897 b 204 972 281 938 247 972 b 129 897 163 972 129 938 l 129 347 b 129 346 129 347 129 347 b 129 346 129 346 129 346 l 129 75 z m 336 486 b 467 543 371 522 415 543 b 597 486 517 543 563 522 b 653 346 632 451 653 401 b 597 208 653 293 632 243 b 467 151 563 172 517 151 b 336 208 415 151 371 172 b 281 346 301 243 281 293 b 336 486 281 401 301 451 z "},"c":{"ha":793,"x_min":0,"x_max":0,"o":"m 433 0 b 433 0 433 0 433 0 b 654 74 517 0 594 31 b 669 176 686 101 692 146 b 565 192 642 210 596 215 b 433 147 529 165 483 147 b 228 346 321 147 228 239 b 433 546 228 453 321 546 b 565 501 485 546 529 528 b 669 515 597 476 642 482 b 654 618 692 546 686 593 b 433 694 594 664 517 694 b 81 346 242 693 81 539 b 433 0 81 156 242 0 z "},"d":{"ha":917,"x_min":0,"x_max":0,"o":"m 758 346 b 758 346 758 346 758 346 b 758 347 758 347 758 347 l 758 897 b 683 972 758 938 725 972 b 607 897 640 972 607 938 l 607 636 b 421 694 556 672 489 694 b 83 346 233 694 83 536 b 421 0 83 158 233 0 b 610 60 490 0 557 24 b 683 0 617 26 646 0 b 758 75 725 0 758 35 z m 551 486 b 607 346 586 451 607 401 b 551 208 607 293 586 243 b 421 151 517 172 472 151 b 290 208 371 151 325 172 b 235 346 256 243 235 293 b 290 486 235 401 256 451 b 421 543 325 522 371 543 b 551 486 472 543 517 522 z "},"e":{"ha":846,"x_min":0,"x_max":0,"o":"m 419 0 b 668 92 518 0 600 29 b 668 182 700 121 686 163 b 564 178 650 204 593 208 b 419 143 529 151 469 139 b 286 206 371 147 315 172 b 239 297 261 229 246 265 l 681 297 b 753 353 719 297 749 319 b 754 365 754 356 754 363 b 754 365 754 365 754 365 b 754 365 754 365 754 365 b 754 372 754 368 754 371 b 419 694 743 560 600 694 b 81 347 229 694 82 536 b 419 0 82 158 229 1 z m 419 563 b 625 415 540 553 611 471 l 232 415 b 419 563 243 472 301 557 z "},"f":{"ha":503,"x_min":0,"x_max":0,"o":"m 369 811 b 378 815 371 813 372 814 b 414 819 383 818 396 819 b 490 897 456 819 490 854 b 414 974 490 939 456 974 b 331 963 385 974 358 971 b 231 876 289 950 250 918 b 204 740 210 836 204 792 l 204 721 l 168 721 b 90 644 125 721 90 688 b 168 568 90 603 125 568 l 204 568 l 204 78 b 281 1 204 36 238 1 b 357 78 324 1 357 36 l 357 568 l 399 568 b 475 644 440 568 475 603 b 399 721 475 688 440 721 l 357 721 l 357 740 b 369 811 357 792 368 811 z "},"g":{"ha":917,"x_min":0,"x_max":0,"o":"m 750 344 b 750 344 750 344 750 344 l 750 621 b 676 694 750 661 718 694 b 603 636 640 694 610 669 b 417 694 553 672 489 694 b 181 592 325 694 240 654 b 83 344 121 526 83 440 b 181 100 83 247 121 161 b 417 -6 240 35 325 -6 b 417 -6 417 -6 417 -6 b 599 50 485 -6 549 15 b 417 -99 581 -35 507 -99 b 338 -79 388 -99 361 -92 b 238 -114 299 -62 256 -76 b 271 -214 218 -151 235 -197 b 417 -249 314 -236 365 -249 b 750 85 601 -249 750 -97 l 750 343 b 750 344 750 343 750 344 z m 549 201 b 417 144 513 164 469 144 b 289 201 368 144 322 164 b 233 344 256 233 233 286 b 289 486 233 400 256 453 b 417 546 322 525 368 546 b 549 486 469 546 513 525 b 601 344 579 453 601 400 b 549 201 601 286 579 233 z "},"h":{"ha":851,"x_min":0,"x_max":0,"o":"m 283 390 b 432 540 285 472 350 539 b 582 390 515 539 582 472 l 582 76 b 658 0 582 33 615 0 b 735 76 701 0 735 33 l 735 390 b 432 694 735 557 600 694 b 283 654 378 694 328 678 l 283 896 b 206 972 283 939 249 972 b 129 896 164 972 129 939 l 129 76 b 132 57 129 69 131 63 b 206 0 142 25 171 0 b 283 76 249 0 283 33 l 283 390 z "},"i":{"ha":390,"x_min":0,"x_max":0,"o":"m 206 693 b 131 617 164 693 131 661 l 131 75 b 206 0 131 33 164 0 b 281 75 249 0 281 33 l 281 617 b 206 693 281 661 249 693 z m 281 897 b 206 972 281 939 249 972 b 131 897 164 972 131 939 l 131 868 b 206 792 131 826 164 792 b 281 868 249 792 281 826 l 281 897 z "},"j":{"ha":346,"x_min":0,"x_max":0,"o":"m 147 790 b 222 867 189 790 222 826 l 222 894 b 147 971 222 939 189 971 b 71 894 106 971 71 939 l 71 867 b 147 790 71 826 106 790 z m 69 -246 b 219 -96 153 -246 219 -178 l 219 618 b 144 694 219 661 188 694 b 69 618 104 694 69 661 l 69 -96 b 69 -96 69 -96 69 -96 b -7 -169 25 -96 -7 -129 b 69 -246 -7 -214 25 -246 z "},"k":{"ha":778,"x_min":0,"x_max":0,"o":"m 206 0 b 283 76 249 0 283 35 l 283 199 l 360 275 l 564 28 b 622 0 578 10 600 0 b 671 18 639 0 657 6 b 682 126 704 44 708 93 l 468 383 l 676 592 b 676 700 707 621 707 669 b 568 700 647 729 597 729 l 283 415 l 283 896 b 206 972 283 938 249 972 b 129 896 163 972 129 938 l 129 76 b 206 0 129 35 163 0 z "},"l":{"ha":346,"x_min":0,"x_max":0,"o":"m 139 896 l 139 76 b 215 0 139 35 174 0 b 293 76 258 0 293 35 l 293 896 b 215 972 293 938 258 972 b 139 896 174 972 139 938 z "},"m":{"ha":1321,"x_min":0,"x_max":0,"o":"m 854 546 b 994 403 931 546 994 482 l 994 74 b 1069 0 994 33 1029 0 b 1143 74 1110 0 1143 33 l 1143 403 b 854 694 1143 564 1014 694 b 636 599 767 694 688 658 b 418 694 583 658 506 694 b 269 653 365 694 314 679 b 203 694 258 679 232 694 b 129 619 163 694 129 663 l 129 404 b 129 403 129 404 129 404 l 129 74 b 189 1 129 38 156 10 b 203 0 193 1 197 0 b 272 44 232 0 260 19 b 272 44 272 44 272 44 b 272 51 272 47 272 50 b 276 60 275 54 275 57 b 276 64 276 60 276 63 b 278 74 276 67 278 71 l 278 74 l 278 403 b 418 546 278 482 342 546 b 561 407 496 546 560 483 b 561 403 561 406 561 404 l 561 74 b 636 0 561 33 597 0 b 636 0 636 0 636 0 b 636 0 636 0 636 0 b 710 74 676 0 710 33 l 710 403 b 710 407 710 404 710 406 b 854 546 713 483 775 546 z "},"n":{"ha":851,"x_min":0,"x_max":0,"o":"m 418 694 b 271 651 364 694 313 678 b 203 694 258 678 232 694 b 129 621 161 694 129 661 l 129 406 b 129 406 129 406 129 406 l 129 74 b 203 0 129 33 161 0 b 276 60 239 0 269 26 b 279 74 279 65 279 69 l 279 74 l 279 406 b 418 546 279 483 340 546 b 563 406 497 546 563 483 l 563 74 b 636 0 563 33 597 0 b 708 74 676 0 708 33 l 708 406 b 418 694 708 563 579 694 z "},"o":{"ha":868,"x_min":0,"x_max":0,"o":"m 432 -4 b 432 -4 432 -4 432 -4 b 664 101 524 -4 607 36 b 761 346 726 163 761 249 l 761 346 b 664 589 761 440 726 522 b 432 694 607 654 524 694 b 193 589 336 694 256 654 b 97 346 133 522 97 440 b 193 101 97 249 133 163 b 432 -4 256 36 336 -4 z m 299 490 b 432 543 333 521 379 543 b 560 490 481 543 525 521 b 614 346 594 453 614 403 l 614 346 b 560 199 614 286 594 238 b 432 147 525 165 481 147 b 299 199 379 147 333 165 b 249 346 267 238 249 286 b 299 490 249 403 267 453 z "},"p":{"ha":917,"x_min":0,"x_max":0,"o":"m 203 -261 b 282 -186 247 -261 282 -225 l 282 58 b 468 1 332 22 399 1 b 804 346 653 1 804 156 b 468 694 804 536 653 694 b 279 638 397 694 331 671 b 203 694 274 668 242 694 b 129 621 163 694 129 661 l 129 346 b 129 346 129 346 129 346 b 129 344 129 344 129 344 l 129 -186 b 203 -261 129 -225 163 -261 z m 336 486 b 468 543 371 524 417 543 b 599 486 515 543 563 524 b 653 346 631 450 653 400 b 599 207 653 292 631 239 b 468 149 563 168 515 149 b 336 207 417 149 371 168 b 282 346 300 239 282 292 b 336 486 282 400 300 450 z "},"q":{"ha":917,"x_min":0,"x_max":0,"o":"m 683 -260 b 758 -186 725 -260 758 -225 l 758 346 b 758 347 758 346 758 346 b 758 347 758 347 758 347 l 758 619 b 683 694 758 661 725 694 b 610 636 646 694 615 668 b 421 694 556 671 492 694 b 83 347 233 694 83 538 b 421 0 83 156 233 0 b 607 58 490 0 554 22 l 607 -186 b 683 -260 607 -225 640 -260 z m 550 485 b 607 347 586 451 607 400 b 550 207 607 290 586 240 b 421 149 518 168 471 149 b 290 207 372 149 326 168 b 233 347 257 240 233 290 b 290 485 233 400 257 451 b 421 544 326 522 372 544 b 550 485 471 544 518 522 z "},"r":{"ha":610,"x_min":0,"x_max":0,"o":"m 483 693 b 308 639 414 694 354 669 b 279 611 299 632 288 621 l 279 621 b 203 693 279 661 244 693 b 129 621 163 693 129 661 l 129 74 b 203 0 129 33 163 0 b 279 74 244 0 279 33 l 279 338 b 336 454 286 357 303 410 b 400 521 353 481 374 504 b 483 547 424 539 451 547 b 557 621 525 547 557 582 b 483 693 557 661 525 693 z "},"s":{"ha":683,"x_min":0,"x_max":0,"o":"m 106 96 l 106 96 b 353 0 161 51 244 1 l 353 0 b 533 56 421 0 483 21 l 533 56 b 621 217 583 92 621 149 l 621 217 b 594 308 621 249 611 281 l 594 308 b 496 390 571 347 533 374 l 496 390 b 367 431 456 410 413 422 l 365 431 l 364 432 l 364 432 b 263 465 317 440 281 453 l 263 465 b 247 479 253 471 249 476 l 247 479 b 244 490 244 483 244 485 l 244 490 b 267 522 244 497 249 510 l 267 522 b 350 547 285 536 315 547 l 350 547 b 478 496 394 547 433 525 l 478 496 b 581 515 513 472 558 482 l 581 515 b 558 618 601 550 592 596 l 558 618 l 558 618 b 350 694 514 649 446 694 l 350 694 b 179 643 286 694 228 676 l 179 643 b 97 490 133 608 97 554 l 97 490 b 121 403 97 458 106 428 l 121 403 b 217 322 146 365 179 340 l 217 322 b 338 286 253 306 294 294 l 339 286 l 339 286 l 339 286 l 339 286 b 450 247 389 276 431 261 l 450 247 b 468 231 461 240 467 235 l 468 231 b 472 217 471 226 472 224 l 472 217 b 447 175 472 206 467 192 l 447 175 b 353 149 425 161 390 149 l 353 149 b 200 210 299 147 236 179 l 200 210 b 96 199 169 236 121 232 l 96 199 b 106 96 71 168 75 121 z "},"t":{"ha":556,"x_min":0,"x_max":0,"o":"m 364 694 l 329 694 l 329 896 b 253 972 329 939 296 972 b 175 896 210 972 175 939 l 175 896 l 175 694 l 135 694 b 58 618 92 694 58 661 b 135 542 58 576 92 542 l 175 542 l 175 154 b 329 0 175 69 244 0 b 406 76 372 0 406 33 b 329 154 406 119 372 154 b 329 154 329 154 329 154 l 329 542 l 364 542 b 442 618 406 542 442 576 b 364 694 442 661 406 694 z "},"A":{"ha":897,"x_min":0,"x_max":0,"o":"m 708 49 b 779 0 719 18 749 0 b 806 4 789 0 799 1 b 851 104 846 19 865 64 l 544 922 b 471 971 532 953 503 972 b 397 922 440 972 410 953 l 90 104 b 136 4 76 64 96 19 b 163 0 144 1 153 0 b 235 49 193 0 222 18 l 303 229 l 640 229 l 708 49 z m 358 382 l 471 681 l 583 382 l 358 382 z "},"u":{"ha":851,"x_min":0,"x_max":0,"o":"m 697 289 l 697 621 b 622 694 697 660 661 694 b 550 621 581 694 550 660 l 550 621 l 550 289 b 404 147 549 210 485 147 b 263 289 325 147 263 210 l 263 621 b 189 694 263 660 231 694 b 115 621 149 694 115 660 l 115 289 b 404 0 115 131 246 0 b 697 289 564 0 697 131 z "},"v":{"ha":808,"x_min":0,"x_max":0,"o":"m 638 678 b 544 638 601 694 560 675 l 383 260 l 224 638 b 131 678 207 675 164 694 b 90 583 92 661 74 621 l 315 44 b 321 35 317 40 318 36 b 322 33 321 33 321 33 b 329 24 325 31 328 26 b 332 22 331 22 331 22 b 340 14 335 18 338 17 b 342 13 340 14 342 14 b 354 6 347 10 350 7 b 357 6 354 6 354 6 b 357 4 357 6 357 6 b 368 1 361 4 364 3 b 371 1 369 1 369 1 b 383 0 376 0 381 0 b 383 0 383 0 383 0 b 397 1 388 0 392 0 b 400 1 399 1 399 1 b 411 4 403 3 407 4 b 411 6 411 6 411 6 b 414 6 414 6 414 6 b 424 13 418 7 421 10 b 425 14 424 14 425 14 b 433 22 428 17 431 18 b 435 24 433 22 435 22 b 443 33 438 26 440 31 b 444 35 443 33 444 33 b 450 44 446 36 449 40 l 678 583 b 638 678 694 621 676 661 z "},"w":{"ha":1196,"x_min":0,"x_max":0,"o":"m 982 679 b 889 638 947 694 903 678 l 725 264 l 626 496 b 558 540 615 524 589 540 b 490 496 529 540 503 524 l 393 264 l 229 638 b 138 679 214 678 171 694 b 97 583 99 663 81 621 l 325 44 b 332 33 328 42 329 38 b 333 32 332 32 332 32 b 339 24 335 29 338 26 b 342 22 342 22 342 22 b 350 15 346 19 349 17 b 351 14 350 14 350 14 b 364 6 354 10 360 7 b 364 6 364 6 364 6 b 367 4 365 6 365 6 b 375 1 369 4 372 3 b 379 1 378 1 378 1 b 393 0 383 0 388 0 b 407 1 397 0 401 0 b 410 1 407 1 407 1 b 418 4 411 3 415 4 b 419 6 418 6 419 6 b 422 6 419 6 422 6 b 435 14 426 7 429 10 b 435 14 435 14 435 14 b 443 22 438 17 440 19 b 444 24 443 22 444 22 b 453 32 447 26 450 29 b 453 33 453 32 453 33 b 460 44 456 38 458 42 l 558 285 l 660 44 b 665 33 661 42 663 38 b 667 32 665 32 667 32 b 674 24 668 29 671 26 b 676 22 674 22 676 22 b 685 15 679 19 681 17 b 685 14 685 14 685 14 b 697 6 689 10 693 7 b 699 6 697 6 697 6 b 700 4 699 6 699 6 b 710 1 704 4 707 3 b 713 1 711 1 711 1 b 725 0 717 0 721 0 b 725 0 725 0 725 0 l 725 0 l 725 0 b 725 0 725 0 725 0 b 739 1 731 0 735 0 b 742 1 740 1 740 1 b 753 4 746 3 750 4 b 754 6 753 6 754 6 b 754 6 754 6 754 6 b 767 13 760 7 763 10 b 768 15 767 14 768 14 b 776 22 771 17 774 19 b 779 24 776 22 778 22 b 786 32 782 26 785 29 b 788 33 786 32 788 32 b 793 44 790 38 792 42 l 1022 583 b 982 679 1039 621 1019 663 z "},"x":{"ha":792,"x_min":0,"x_max":0,"o":"m 617 671 b 511 656 582 694 538 688 l 372 469 l 233 656 b 132 671 208 688 165 694 b 117 572 100 649 93 601 l 283 344 l 117 115 b 132 15 93 85 100 36 b 176 0 144 6 161 0 b 233 31 199 0 218 13 l 372 221 l 511 31 b 572 0 529 13 550 0 b 617 15 588 0 603 6 b 631 115 646 36 654 85 l 465 344 l 631 572 b 617 671 654 601 646 649 z "},"y":{"ha":817,"x_min":0,"x_max":0,"o":"m 578 694 b 506 621 536 694 506 663 l 506 293 b 363 151 506 213 442 151 b 218 293 283 151 218 213 l 218 621 b 144 694 218 663 188 694 b 72 621 107 694 72 663 l 72 293 b 363 1 72 133 203 1 b 494 35 408 1 456 13 b 321 -92 472 -37 403 -90 b 240 -72 293 -92 267 -85 b 142 -103 207 -54 160 -69 b 178 -201 125 -142 139 -185 b 321 -236 219 -222 271 -236 b 653 96 506 -236 653 -90 l 653 293 b 653 293 653 293 653 293 l 653 621 b 578 694 653 663 618 694 z "},"z":{"ha":769,"x_min":0,"x_max":0,"o":"m 618 579 b 625 586 621 581 622 583 b 625 590 625 589 625 590 b 629 597 628 592 629 594 b 631 604 631 600 631 603 b 632 613 632 607 632 608 b 633 619 632 613 632 617 b 633 621 633 619 633 621 b 632 626 633 622 632 625 b 632 635 632 629 632 632 b 629 642 631 636 631 639 b 628 649 629 644 629 647 b 625 657 628 651 625 653 b 621 660 622 657 622 658 b 617 665 619 661 618 663 b 613 669 615 667 614 669 b 606 676 610 674 607 675 b 603 679 606 678 604 679 b 601 681 603 679 603 681 b 593 685 599 682 596 685 b 589 689 592 685 590 688 b 582 690 588 689 585 690 b 575 693 581 692 578 692 b 568 693 572 693 572 693 b 560 694 565 693 563 694 b 560 694 560 694 560 694 l 158 694 b 85 621 119 694 85 661 b 158 547 85 579 119 547 l 413 547 l 100 115 b 99 115 100 115 100 115 b 94 108 97 114 94 111 b 90 104 94 108 92 104 b 89 97 90 103 89 100 b 86 90 88 94 88 92 b 86 85 86 88 86 86 b 85 75 86 82 85 78 b 85 74 85 74 85 74 b 86 69 85 72 85 71 b 86 60 86 67 86 63 b 88 54 86 58 88 56 b 90 47 89 50 89 47 b 94 40 90 43 92 42 b 97 35 94 38 94 36 b 101 29 99 33 100 32 b 107 22 103 28 104 26 b 113 18 107 22 111 19 b 117 15 114 17 115 15 b 118 14 117 14 117 14 b 121 10 118 13 119 13 b 126 7 122 10 125 7 b 132 4 128 6 129 6 b 140 1 135 4 138 3 b 144 1 142 1 143 1 b 158 0 150 0 154 0 b 158 0 158 0 158 0 b 158 0 158 0 158 0 l 560 0 b 633 74 599 0 633 33 b 560 147 633 115 599 147 l 304 147 l 618 578 b 618 579 618 579 618 579 z "},"&":{"ha":967,"x_min":0,"x_max":0,"o":"m 803 563 b 711 621 794 604 753 631 b 654 529 669 611 643 571 b 656 508 656 519 656 513 b 656 499 656 500 656 499 b 651 496 654 497 654 497 b 636 494 646 494 642 494 b 631 494 635 494 632 494 b 585 496 615 496 600 496 b 368 425 488 496 415 471 b 311 285 321 381 310 321 b 319 226 311 253 317 231 b 393 171 329 192 358 171 b 414 174 400 171 408 172 b 467 269 456 186 478 229 b 465 285 467 271 465 276 b 476 315 465 297 467 306 b 582 342 483 324 510 340 b 582 333 582 339 582 335 b 401 154 582 233 501 154 b 222 333 301 154 222 233 b 324 496 222 404 264 467 b 331 500 326 497 328 499 b 335 503 333 501 333 501 b 339 506 336 503 338 504 b 354 521 344 511 350 515 b 356 526 354 524 356 525 b 357 526 357 526 357 526 b 336 629 378 561 368 604 b 292 714 310 647 292 678 b 396 818 292 772 339 818 b 500 714 454 818 500 772 b 578 638 500 671 536 638 b 654 714 621 638 654 671 b 396 972 654 857 539 972 b 138 714 254 972 138 857 b 176 578 138 664 151 618 b 68 333 110 518 68 431 b 401 0 68 149 217 0 b 736 333 586 0 736 149 b 735 367 736 344 736 356 b 750 375 739 369 743 372 b 810 508 786 403 811 456 b 803 563 810 526 808 544 z "},"@":{"ha":1361,"x_min":0,"x_max":0,"o":"m 558 972 b 74 488 290 972 74 754 b 558 0 74 218 290 1 b 679 15 600 0 640 6 b 735 110 721 26 744 68 b 642 164 725 150 682 175 b 558 156 615 158 588 156 b 228 488 376 156 228 303 b 558 818 228 669 376 818 b 890 488 743 818 890 669 b 856 336 890 432 878 381 b 838 314 854 333 846 322 b 828 306 833 310 831 308 l 828 471 b 828 476 828 474 828 475 b 828 488 828 481 828 483 b 751 683 828 563 799 633 b 558 768 703 735 635 768 b 367 683 483 768 414 735 b 290 488 319 633 290 563 b 367 289 290 410 319 340 b 558 206 414 238 483 206 b 558 206 558 206 558 206 b 683 236 604 206 646 217 b 706 194 688 222 694 208 b 811 143 725 165 767 142 b 847 147 824 143 835 144 b 956 214 899 160 932 190 b 990 263 976 238 988 260 l 990 264 l 990 264 b 1044 488 1026 331 1044 407 b 558 972 1044 754 828 972 z m 639 394 b 558 360 617 372 590 360 b 479 394 528 360 500 372 b 444 488 457 418 444 450 b 479 579 444 524 457 556 b 558 614 500 600 528 614 b 639 579 590 614 617 600 b 674 488 660 556 674 524 b 639 394 674 450 660 418 z "},"(":{"ha":597,"x_min":0,"x_max":0,"o":"m 265 -76 l 265 -76 b 428 -131 310 -111 368 -131 l 428 -131 b 431 -131 429 -131 429 -131 l 431 -131 b 518 -43 479 -131 518 -92 l 518 -43 b 431 44 518 6 479 44 l 431 44 l 431 44 b 372 64 404 46 389 51 l 372 64 b 303 188 347 82 321 124 l 303 188 b 275 425 283 251 274 333 l 275 425 b 324 718 274 546 292 653 l 324 718 b 372 786 339 751 356 774 l 372 786 b 431 804 389 799 404 804 l 431 804 b 518 893 479 804 518 844 l 518 893 b 431 981 518 940 479 981 l 431 981 b 265 925 369 981 311 961 l 265 925 b 133 711 197 872 158 796 l 133 711 b 99 425 108 625 99 528 l 99 425 b 164 57 99 288 117 161 l 164 57 b 265 -76 188 6 221 -42 z "},")":{"ha":597,"x_min":0,"x_max":0,"o":"m 336 -76 b 438 57 381 -42 414 6 l 438 57 b 503 425 485 161 503 288 l 503 425 b 468 711 503 528 493 625 l 468 711 b 336 925 443 796 404 872 l 336 925 b 171 981 290 961 232 981 l 171 981 b 83 893 122 981 83 940 l 83 893 b 171 804 83 844 122 804 l 171 804 b 229 786 197 804 213 799 l 229 786 b 278 718 246 774 263 751 l 278 718 b 326 425 310 653 328 546 l 326 425 b 299 188 328 333 318 251 l 299 188 b 229 64 281 124 254 82 l 229 64 b 171 44 213 51 197 46 l 171 44 l 171 44 b 83 -43 122 44 83 6 l 83 -43 b 171 -131 83 -92 122 -131 l 171 -131 b 174 -131 172 -131 172 -131 l 174 -131 b 336 -76 233 -131 292 -111 z "},"+":{"ha":861,"x_min":0,"x_max":0,"o":"m 363 219 b 442 140 363 175 397 140 b 521 219 485 140 521 175 l 521 413 l 718 413 b 794 489 760 413 794 446 b 718 565 794 531 760 565 l 521 565 l 521 758 b 442 838 521 803 485 838 b 363 758 397 838 363 803 l 363 565 l 165 565 b 89 489 124 565 89 531 b 165 413 89 446 124 413 l 363 413 z "},"!":{"ha":350,"x_min":0,"x_max":0,"o":"m 206 258 b 281 335 247 258 281 292 l 281 896 b 206 972 281 938 247 972 b 129 896 164 972 129 938 l 129 335 b 206 258 129 292 164 258 z m 281 76 l 281 104 b 206 181 281 146 247 181 b 129 104 164 181 129 146 l 129 76 b 206 0 129 33 164 0 b 281 76 247 0 281 33 z "},"?":{"ha":742,"x_min":0,"x_max":0,"o":"m 322 161 b 254 93 286 161 254 131 l 254 68 b 322 0 254 29 286 0 b 390 68 361 0 390 29 l 390 93 b 322 161 390 131 361 161 z m 615 681 b 322 972 615 842 483 972 b 71 828 215 972 121 914 b 94 735 51 794 63 754 b 189 760 128 715 169 726 b 322 836 215 806 265 836 b 481 681 410 836 481 768 b 322 525 481 594 410 525 b 254 457 286 525 254 493 b 256 454 254 456 254 456 b 254 451 256 453 254 453 l 254 307 b 322 239 254 268 286 239 b 390 307 361 239 390 268 l 390 397 b 615 681 519 428 615 543 z "},"<":{"ha":861,"x_min":0,"x_max":0,"o":"m 296 482 l 625 814 b 625 939 660 849 660 904 b 500 939 592 972 535 972 l 110 543 b 101 533 106 540 103 536 b 99 531 99 533 99 531 b 92 518 96 528 94 522 b 90 515 92 517 90 517 b 88 504 89 511 89 508 b 85 499 88 503 85 501 b 85 489 85 496 85 492 b 83 482 85 488 83 483 b 85 474 83 478 85 476 b 85 464 85 471 85 468 b 88 457 85 463 88 461 b 90 449 89 456 89 451 b 94 443 90 447 92 444 b 99 432 96 439 96 436 b 103 429 99 432 101 431 b 110 421 104 425 106 422 l 500 25 b 564 0 518 8 540 0 b 625 25 586 0 607 8 b 625 150 660 60 660 114 l 296 482 z "},">":{"ha":861,"x_min":0,"x_max":0,"o":"m 692 444 b 693 449 692 447 693 447 b 697 461 694 451 694 456 b 699 464 697 463 699 463 b 699 475 699 468 699 471 b 700 482 699 476 700 481 b 699 489 700 483 699 488 b 699 499 699 492 699 496 b 697 503 699 501 697 501 b 693 515 694 508 694 511 b 692 518 693 517 692 517 b 685 531 690 522 688 525 b 683 533 685 531 685 533 b 674 543 681 536 678 540 l 283 939 b 158 939 249 972 192 972 b 158 814 124 904 124 849 l 488 482 l 158 150 b 158 25 124 114 124 60 b 221 0 176 8 197 0 b 283 25 243 0 267 8 l 674 421 b 683 431 678 424 681 428 b 685 432 685 431 685 432 b 692 444 688 438 690 442 z "},"=":{"ha":861,"x_min":0,"x_max":0,"o":"m 160 360 l 160 360 l 418 360 l 418 360 b 467 410 446 360 467 382 l 467 410 b 418 460 467 438 446 460 l 160 460 l 160 460 b 110 410 132 460 110 438 l 110 410 b 160 360 110 382 132 360 z m 160 517 l 160 517 l 418 517 l 418 517 b 467 565 446 517 467 538 l 467 565 b 418 614 467 592 446 614 l 160 614 l 160 614 b 110 565 132 614 110 592 l 110 565 b 160 517 110 538 132 517 z "},".":{"ha":319,"x_min":0,"x_max":0,"o":"m 114 93 b 217 -10 114 36 160 -10 b 321 93 274 -10 321 36 b 217 197 321 150 274 197 b 114 93 160 197 114 150 z "},",":{"ha":319,"x_min":0,"x_max":0,"o":"m 75 -162 b 118 -201 75 -183 89 -201 b 249 -142 157 -201 211 -178 b 317 61 292 -97 317 -33 l 317 76 b 217 199 317 151 279 199 b 122 106 160 199 122 158 l 122 94 b 201 0 122 44 161 11 b 107 -125 204 -61 171 -104 b 75 -162 89 -129 75 -143 z "},":":{"ha":333,"x_min":0,"x_max":0,"o":"m 121 93 b 224 -10 121 36 167 -10 b 328 93 281 -10 328 36 b 224 197 328 150 281 197 b 121 93 167 197 121 150 z m 121 646 b 224 543 121 589 167 543 b 328 646 281 543 328 589 b 224 750 328 703 281 750 b 121 646 167 750 121 703 z "},";":{"ha":333,"x_min":0,"x_max":0,"o":"m 133 635 l 133 632 b 254 514 133 565 185 514 b 375 632 324 514 375 565 l 375 635 b 254 753 375 701 324 753 b 133 635 185 753 133 701 z m 82 -178 b 135 -225 82 -203 97 -225 b 290 -158 186 -225 249 -200 b 372 69 342 -107 372 -32 l 372 75 b 249 231 372 171 326 231 b 133 117 179 231 133 182 l 133 114 b 231 0 133 54 182 13 b 124 -132 233 -67 194 -115 b 82 -178 100 -137 82 -153 z "},"’":{"ha":319,"x_min":0,"x_max":0,"o":"m 82 619 b 125 581 82 597 96 581 b 256 640 164 581 218 603 b 324 843 299 683 324 749 l 324 857 b 224 979 324 932 285 979 b 129 886 167 979 129 939 l 129 875 b 208 782 129 825 168 792 b 114 657 211 719 178 676 b 82 619 96 651 82 639 z "},"‘":{"ha":319,"x_min":0,"x_max":0,"o":"m 350 939 b 307 978 350 961 336 978 b 176 918 267 978 213 956 b 107 715 132 875 107 810 l 107 701 b 207 579 107 626 146 579 b 301 672 264 579 301 619 l 301 683 b 222 778 301 733 263 767 b 317 901 219 839 253 882 b 350 939 336 907 350 919 z "},"”":{"ha":725,"x_min":0,"x_max":0,"o":"m 82 619 b 125 581 82 597 96 581 b 256 640 164 581 218 603 b 324 843 299 683 324 749 l 324 857 b 224 979 324 932 285 979 b 129 886 167 979 129 939 l 129 875 b 208 782 129 825 168 792 b 114 657 211 719 178 676 b 82 619 96 651 82 639 z m 403 619 b 446 581 403 597 417 581 b 576 640 486 581 540 603 b 646 843 621 683 646 749 l 646 857 b 546 979 646 932 607 979 b 451 886 489 979 451 939 l 451 875 b 531 782 451 825 490 792 b 436 657 533 719 500 676 b 403 619 417 651 403 639 z "},"“":{"ha":725,"x_min":0,"x_max":0,"o":"m 650 939 b 606 978 650 961 635 978 b 475 918 567 978 513 956 b 407 715 432 875 407 810 l 407 701 b 507 579 407 626 446 579 b 601 672 564 579 601 619 l 601 683 b 522 778 601 733 563 767 b 617 901 519 839 553 882 b 650 939 636 907 650 919 z m 328 939 b 285 978 328 961 314 978 b 154 918 244 978 190 956 b 85 715 110 875 85 810 l 85 701 b 185 579 85 626 124 579 b 279 672 242 579 279 619 l 279 683 b 200 778 279 733 240 767 b 294 901 197 839 231 882 b 328 939 314 907 328 919 z "},"/":{"ha":586,"x_min":0,"x_max":0,"o":"m 160 6 l 160 6 b 188 0 168 1 179 0 l 188 0 b 258 46 217 0 246 17 l 599 857 l 599 857 b 560 956 615 894 597 940 l 560 956 b 458 915 519 972 475 954 l 118 106 l 118 106 b 160 6 101 67 119 21 z "},"\\":{"ha":622,"x_min":0,"x_max":0,"o":"m 540 6 b 582 106 581 21 599 67 l 582 106 l 242 915 b 140 956 225 954 181 972 l 140 956 b 101 857 103 940 85 894 l 101 857 l 442 46 b 513 0 454 17 483 0 l 513 0 b 540 6 521 0 532 1 l 540 6 z "}," ":{"ha":417,"x_min":0,"x_max":0,"o":""},"-":{"ha":567,"x_min":0,"x_max":0,"o":"m 174 343 l 435 343 b 517 425 479 343 517 381 b 435 508 517 471 479 508 l 174 508 b 92 425 129 508 92 471 b 174 343 92 381 129 343 z "},"'":{"ha":319,"x_min":0,"x_max":0,"o":"m 96 601 b 143 549 94 569 115 549 b 194 592 169 549 185 565 l 296 900 b 301 931 299 911 301 922 b 254 976 301 960 281 976 l 200 976 b 121 899 154 976 124 943 z "},"\"":{"ha":569,"x_min":0,"x_max":0,"o":"m 401 601 b 447 549 399 569 421 549 b 497 592 474 549 488 565 l 599 900 b 604 931 601 911 604 922 b 560 976 604 960 585 976 l 504 976 b 425 899 458 976 428 943 z m 96 601 b 143 549 94 569 115 549 b 193 592 169 549 183 565 l 294 900 b 300 931 297 911 300 922 b 254 976 300 960 281 976 l 200 976 b 121 899 154 976 124 943 z "},"#":{"ha":972,"x_min":0,"x_max":0,"o":"m 174 78 b 244 -7 167 31 200 -7 b 318 53 286 -7 313 22 l 347 224 l 565 224 l 539 78 b 611 -7 532 35 565 -7 b 683 53 647 -7 678 18 l 713 224 l 817 224 b 889 296 857 224 889 257 b 817 368 889 336 857 368 l 738 368 l 779 610 l 868 610 b 940 682 907 610 940 643 b 868 754 940 722 907 754 l 804 754 l 828 894 b 757 979 835 938 801 979 b 683 919 719 979 689 956 l 656 754 l 438 754 l 463 894 b 390 979 468 938 436 979 b 318 919 354 979 324 956 l 290 754 l 185 754 b 113 682 146 754 113 721 b 185 610 113 643 146 610 l 265 610 l 224 368 l 135 368 b 63 296 94 368 63 335 b 135 224 63 256 94 224 l 199 224 z m 372 368 l 414 610 l 631 610 l 589 368 z "},"$":{"ha":878,"x_min":0,"x_max":0,"o":"m 407 1000 l 407 971 b 115 706 233 957 115 854 b 413 419 115 549 210 472 l 413 146 b 207 239 336 160 272 192 b 161 254 194 249 178 254 b 85 178 118 254 85 221 b 122 111 85 149 99 126 b 407 3 207 51 303 14 l 407 -83 b 468 -143 407 -117 435 -143 b 528 -83 501 -143 528 -117 l 528 0 b 824 271 704 17 824 118 b 522 557 824 419 733 504 l 522 824 b 665 763 569 813 617 792 b 707 750 679 754 693 750 b 785 826 750 750 785 783 b 743 893 785 860 765 881 b 528 969 679 933 610 960 l 528 1000 b 468 1060 528 1033 501 1060 b 407 1000 435 1060 407 1033 z m 660 261 b 522 140 660 194 611 150 l 522 393 b 660 261 629 360 660 322 z m 279 715 b 413 832 279 776 324 824 l 413 586 b 279 715 306 621 279 657 z "},"*":{"ha":597,"x_min":0,"x_max":0,"o":"m 276 575 b 319 524 272 546 292 524 b 363 576 347 524 367 547 l 349 700 l 453 624 b 486 610 465 615 475 610 b 533 656 511 610 533 631 b 501 700 533 678 518 693 l 379 753 l 501 807 b 533 850 518 814 533 828 b 488 896 533 875 513 896 b 453 882 475 896 465 892 l 349 806 l 363 931 b 319 982 367 960 347 982 b 276 929 292 982 272 958 l 290 806 l 186 882 b 153 896 174 892 165 896 b 106 850 128 896 106 875 b 138 807 106 829 121 814 l 260 753 l 138 700 b 106 657 122 693 106 678 b 151 610 106 632 126 610 b 186 624 164 610 174 615 l 290 700 z "},"[":{"ha":597,"x_min":0,"x_max":0,"o":"m 136 -97 b 218 -181 136 -143 172 -181 l 504 -181 b 571 -114 540 -181 571 -150 b 504 -49 571 -78 540 -49 l 297 -49 l 297 840 l 504 840 b 571 906 540 840 571 869 b 504 972 571 942 540 972 l 218 972 b 136 889 172 972 136 935 z "},"]":{"ha":597,"x_min":0,"x_max":0,"o":"m 511 889 b 428 972 511 935 474 972 l 142 972 b 76 906 106 972 76 942 b 142 840 76 869 106 840 l 350 840 l 350 -49 l 142 -49 b 76 -114 106 -49 76 -78 b 142 -181 76 -150 106 -181 l 428 -181 b 511 -97 474 -181 511 -143 z "},"å":{"ha":797,"x_min":0,"x_max":0,"o":"m 403 792 b 581 963 496 792 581 871 l 581 965 b 403 1136 581 1058 496 1136 b 225 965 310 1136 225 1058 l 225 963 b 403 792 225 871 310 792 z m 403 897 b 336 963 365 897 336 926 l 336 965 b 403 1031 336 1001 365 1031 b 469 965 440 1031 469 1001 l 469 963 b 403 897 469 926 440 897 z m 732 619 b 658 694 732 661 699 694 b 586 633 622 694 594 668 b 401 694 533 671 471 694 b 165 590 307 694 225 654 b 71 346 106 528 71 442 b 165 101 71 251 106 165 b 401 0 225 39 307 0 b 401 0 401 0 401 0 b 586 60 471 0 533 22 b 658 0 594 26 622 0 b 732 74 699 0 732 33 l 732 346 b 732 346 732 346 732 346 b 732 346 732 346 732 346 l 732 619 z m 531 203 b 401 149 497 168 450 149 b 272 203 351 149 304 168 b 219 346 239 239 219 289 b 272 489 219 404 239 454 b 401 546 304 526 351 546 b 531 489 450 546 497 526 b 585 346 564 454 585 404 b 531 203 585 289 564 239 z "},"æ":{"ha":1325,"x_min":0,"x_max":0,"o":"m 979 0 b 1233 93 1081 0 1164 29 b 1233 186 1265 124 1251 165 b 1126 182 1214 208 1157 213 b 979 146 1092 154 1031 142 b 843 210 929 150 872 176 b 794 303 818 233 801 271 l 1246 303 b 1319 360 1285 303 1315 326 b 1321 372 1321 363 1321 369 l 1321 381 b 979 708 1310 571 1164 708 b 746 615 888 708 807 672 l 746 632 b 671 708 746 675 711 708 b 597 647 633 708 606 682 b 408 708 543 685 479 708 b 167 603 313 708 228 668 b 71 353 107 539 71 451 b 167 104 71 257 107 169 b 408 0 228 40 313 0 b 597 61 479 0 543 22 b 671 0 606 26 633 0 b 746 75 711 0 746 33 l 746 93 b 979 0 807 36 888 0 z m 540 207 b 408 151 506 172 458 151 b 276 207 357 151 310 172 b 222 353 243 244 222 294 b 276 499 222 413 243 464 b 408 557 310 538 357 557 b 540 499 458 557 506 538 b 596 353 574 464 596 413 b 540 207 596 294 574 244 z m 979 574 b 1189 424 1103 564 1175 481 l 788 424 b 979 574 799 482 858 568 z "},"£":{"ha":894,"x_min":0,"x_max":0,"o":"m 92 60 b 157 0 92 26 118 0 l 765 0 b 840 74 807 0 840 32 b 765 149 840 115 807 149 l 382 149 l 382 386 l 663 386 b 735 458 701 386 735 418 b 663 531 735 497 701 531 l 382 531 l 382 654 b 428 789 382 713 399 758 b 531 828 454 814 486 828 b 679 756 594 828 636 801 b 740 729 690 743 710 729 b 825 813 788 729 825 765 b 799 874 825 839 814 858 b 528 986 738 939 656 986 b 294 900 428 986 349 956 b 208 658 239 844 208 760 l 208 531 l 164 531 b 92 458 124 531 92 497 b 164 386 92 418 124 386 l 208 386 l 208 142 l 138 121 b 92 60 107 111 92 88 z "},"ð":{"ha":872,"x_min":0,"x_max":0,"o":"m 596 618 b 403 675 536 654 482 675 b 81 346 221 675 81 542 b 454 -17 81 146 239 -17 b 839 360 694 -17 839 157 b 718 699 839 483 801 578 l 593 876 l 693 919 b 729 969 714 928 729 944 b 676 1024 729 999 706 1024 b 653 1018 669 1024 661 1021 l 532 965 l 517 988 b 450 1025 501 1010 481 1025 b 374 949 407 1025 374 990 b 388 904 374 932 378 918 l 261 849 b 224 799 239 840 224 824 b 276 746 224 769 247 746 b 300 750 285 746 293 747 l 451 817 z m 674 343 b 461 126 674 224 590 126 b 246 342 335 126 246 226 b 456 551 246 461 328 551 b 674 343 585 551 674 458 z "},"÷":{"ha":861,"x_min":0,"x_max":0,"o":"m 722 417 b 794 489 763 417 794 450 b 722 561 794 528 763 561 l 161 561 b 89 489 121 561 89 528 b 161 417 89 450 121 417 z m 442 874 b 346 782 389 874 346 832 l 346 775 b 442 682 346 724 389 682 b 538 775 494 682 538 724 l 538 782 b 442 874 538 832 494 874 z m 442 296 b 346 203 389 296 346 254 l 346 196 b 442 104 346 144 389 104 b 538 196 494 104 538 144 l 538 203 b 442 296 538 254 494 296 z "},"ø":{"ha":889,"x_min":0,"x_max":0,"o":"m 839 686 b 742 667 817 701 774 693 l 694 624 b 472 713 636 679 558 713 b 229 606 376 713 292 672 b 132 357 168 539 132 453 b 183 168 132 288 150 222 l 115 108 b 104 28 86 79 81 44 b 124 21 108 25 117 22 b 200 47 144 18 175 26 l 247 89 b 472 0 308 33 386 0 b 711 107 567 0 653 40 b 810 357 775 171 810 258 b 758 546 810 426 792 490 l 828 608 b 839 686 856 635 863 669 z m 285 357 b 339 503 285 415 306 465 b 472 560 374 538 421 560 b 581 522 513 560 550 546 l 300 274 b 285 357 290 299 285 326 z m 660 357 b 603 208 660 297 638 247 b 472 153 568 174 522 153 b 360 190 431 153 392 167 l 643 443 b 660 357 654 417 660 389 z "},"™":{"ha":958,"x_min":0,"x_max":0,"o":"m 349 940 b 317 972 349 958 333 972 l 63 972 b 31 940 44 972 31 958 b 63 906 31 922 44 906 l 157 906 l 157 589 b 190 557 157 572 172 557 b 222 589 208 557 222 572 l 222 906 l 317 906 b 349 940 333 906 349 922 z m 756 972 b 756 972 756 972 756 972 b 756 972 756 972 756 972 b 754 972 754 972 754 972 b 726 958 743 972 735 967 l 610 794 l 493 958 b 467 972 486 967 475 972 b 464 972 464 972 464 972 b 432 940 447 972 432 958 l 432 589 b 464 557 432 572 447 557 b 496 589 482 557 496 572 l 496 840 l 582 721 b 610 707 588 713 599 707 b 610 707 610 707 610 707 b 610 707 610 707 610 707 b 638 721 622 707 631 713 l 722 840 l 722 589 b 756 557 722 572 736 557 b 789 589 774 557 789 572 l 789 940 b 756 972 789 958 774 971 z "},"©":{"ha":1153,"x_min":0,"x_max":0,"o":"m 575 -17 b 1079 486 857 -17 1079 213 l 1079 489 b 578 989 1079 763 860 989 b 74 486 296 989 74 760 l 74 483 b 575 -17 74 210 293 -17 z m 575 33 b 126 483 319 33 126 235 l 126 486 b 578 939 126 735 321 939 b 1026 489 833 939 1026 738 l 1026 486 b 575 33 1026 238 832 33 z m 582 221 b 776 294 671 221 725 250 b 792 329 785 301 792 314 b 743 378 792 356 769 378 b 713 365 729 378 719 371 b 585 315 675 333 638 315 b 421 492 490 315 421 396 l 421 494 b 585 671 421 592 490 671 b 704 626 632 671 672 651 b 738 613 715 618 726 613 b 788 664 765 613 788 635 b 765 706 788 682 778 697 b 585 765 721 742 669 765 b 315 493 428 765 315 642 l 315 490 b 582 221 315 340 429 221 z "},"®":{"ha":578,"x_min":0,"x_max":0,"o":"m 289 500 b 531 743 424 500 531 611 l 531 744 b 289 986 531 876 425 986 b 47 743 154 986 47 875 l 47 742 b 289 500 47 610 153 500 z m 289 526 b 75 742 167 526 75 624 l 75 743 b 289 960 75 861 168 960 b 503 744 411 960 503 863 l 503 743 b 289 526 503 625 410 526 z m 382 643 b 381 668 382 647 381 656 b 368 711 381 685 375 700 b 353 726 364 718 358 722 b 385 793 372 743 385 767 b 299 881 385 842 346 881 l 225 881 b 225 881 225 881 225 881 b 225 881 225 881 225 881 b 203 858 213 881 203 871 l 203 618 b 225 596 203 606 213 596 b 249 618 238 596 249 606 l 249 707 l 296 707 b 318 697 300 706 310 703 b 331 685 324 693 328 689 b 336 668 333 681 335 675 b 344 618 336 644 339 631 b 357 604 347 613 351 607 b 374 600 363 601 369 600 b 374 600 374 600 374 600 b 382 601 378 600 381 601 b 397 629 394 606 401 618 b 382 643 394 636 389 642 z m 299 751 l 249 751 l 249 835 l 299 835 b 340 793 321 835 340 817 b 299 751 340 771 321 751 z "},"¡":{"ha":350,"x_min":0,"x_max":0,"o":"m 206 714 b 129 638 164 714 129 681 l 129 76 b 206 0 129 35 164 0 b 281 76 247 0 281 35 l 281 638 b 206 714 281 681 247 714 z m 281 896 b 206 972 281 939 247 972 b 129 896 164 972 129 939 l 129 868 b 206 792 129 826 164 792 b 281 868 247 792 281 826 l 281 896 z "},"¢":{"ha":807,"x_min":0,"x_max":0,"o":"m 581 254 b 447 210 544 228 497 210 b 388 218 426 210 406 213 l 544 594 b 581 572 557 588 569 581 b 688 586 614 546 658 551 b 672 690 710 617 704 665 b 603 733 651 707 628 721 l 638 815 b 599 914 654 853 636 899 b 497 874 558 931 514 913 l 453 768 b 447 768 451 768 449 768 b 86 413 250 767 86 610 b 197 160 86 313 129 224 l 157 64 b 199 -36 140 25 158 -21 b 226 -42 207 -40 218 -42 b 297 4 256 -42 285 -25 l 329 79 b 447 60 365 67 406 60 b 672 135 532 60 611 90 b 688 239 704 163 710 208 b 581 254 658 274 613 279 z m 236 413 b 385 607 236 501 299 581 l 263 315 b 236 413 246 344 236 378 z "},"ß":{"ha":861,"x_min":0,"x_max":0,"o":"m 428 65 b 504 -4 428 25 457 -4 b 817 272 661 -1 817 92 l 817 275 b 606 522 817 413 714 486 b 760 760 686 567 760 635 l 760 763 b 460 1024 760 908 649 1024 b 129 697 257 1024 129 899 l 129 75 b 211 -7 129 29 165 -7 b 296 75 258 -7 296 29 l 296 703 b 451 881 296 811 360 881 b 592 747 536 881 592 828 l 592 744 b 464 569 592 664 536 610 b 428 500 443 556 428 533 b 489 426 428 457 457 436 b 649 279 582 403 649 358 l 649 276 b 488 132 649 192 586 147 b 428 65 451 124 428 99 z "},"…":{"ha":944,"x_min":0,"x_max":0,"o":"m 114 93 b 217 -10 114 36 160 -10 b 321 93 274 -10 321 36 b 217 197 321 150 274 197 b 114 93 160 197 114 150 z m 513 93 b 615 -10 513 36 558 -10 b 719 93 672 -10 719 36 b 615 197 719 150 672 197 b 513 93 558 197 513 150 z m 911 93 b 1014 -10 911 36 957 -10 b 1118 93 1071 -10 1118 36 b 1014 197 1118 150 1071 197 b 911 93 957 197 911 150 z "},"„":{"ha":569,"x_min":0,"x_max":0,"o":"m 75 -162 b 118 -201 75 -183 89 -201 b 249 -142 157 -201 211 -178 b 317 61 292 -97 317 -33 l 317 76 b 217 199 317 151 279 199 b 122 106 160 199 122 158 l 122 94 b 201 0 122 44 161 11 b 107 -125 204 -61 171 -104 b 75 -162 89 -129 75 -143 z m 396 -162 b 439 -201 396 -183 410 -201 b 569 -142 479 -201 533 -178 b 639 61 614 -97 639 -33 l 639 76 b 539 199 639 150 600 199 b 444 106 482 199 444 158 l 444 94 b 524 0 444 44 483 11 b 429 -125 526 -61 493 -104 b 396 -162 410 -129 396 -143 z "},"œ":{"ha":1465,"x_min":0,"x_max":0,"o":"m 994 0 b 1249 93 1096 0 1179 29 b 1249 186 1281 124 1267 165 b 1142 182 1229 208 1172 213 b 994 146 1107 154 1046 142 b 858 210 944 150 888 176 b 810 303 833 233 817 271 l 1261 303 b 1335 360 1300 303 1331 326 b 1336 372 1336 363 1336 369 l 1336 381 b 994 708 1325 571 1179 708 b 703 544 869 708 764 643 b 660 601 690 565 676 583 b 421 708 601 668 515 708 b 178 601 325 708 240 668 b 81 353 117 535 81 449 b 178 103 81 254 117 167 b 421 -4 240 36 325 -4 b 660 103 515 -4 601 36 b 706 160 676 119 692 139 b 994 0 767 64 871 0 z m 288 499 b 421 556 322 533 369 556 b 551 499 471 556 517 533 b 608 353 586 461 608 411 b 551 204 608 293 586 243 b 421 149 517 169 471 149 b 288 204 369 149 322 169 b 233 353 254 243 233 293 b 288 499 233 411 254 461 z m 994 574 b 1204 424 1118 564 1190 481 l 803 424 b 994 574 814 482 874 568 z "},"•":{"ha":653,"x_min":0,"x_max":0,"o":"m 351 293 b 547 488 458 293 547 379 l 547 490 b 351 686 547 599 457 686 b 154 490 244 686 154 599 l 154 488 b 351 293 154 379 243 293 z "},"–":{"ha":733,"x_min":0,"x_max":0,"o":"m 171 346 l 604 346 b 683 425 647 346 683 382 b 604 506 683 469 647 506 l 171 506 b 92 425 128 506 92 469 b 171 346 92 382 128 346 z "},"˜":{"ha":694,"x_min":0,"x_max":0,"o":"m 243 838 b 307 882 260 868 275 882 b 507 826 357 882 431 826 b 649 953 581 826 619 872 b 654 985 651 963 654 976 b 603 1031 654 1008 631 1031 b 557 1003 582 1031 567 1018 b 493 958 540 972 525 958 b 293 1014 443 958 369 1014 b 151 888 219 1014 181 968 b 146 856 149 878 146 864 b 197 810 146 832 169 810 b 243 838 219 810 233 822 z "},"š":{"ha":690,"x_min":0,"x_max":0,"o":"m 303 999 b 200 1036 267 1029 239 1036 b 163 1008 179 1036 163 1026 b 179 975 163 999 171 986 l 271 860 b 351 819 292 835 313 819 l 401 819 b 482 860 440 819 463 835 l 574 975 b 590 1008 582 986 590 999 b 550 1036 590 1026 572 1036 b 447 999 511 1036 485 1029 l 375 936 z m 106 96 l 106 96 b 353 0 161 51 244 1 l 353 0 b 533 56 421 0 483 21 l 533 56 b 621 217 583 92 621 149 l 621 217 b 594 308 621 249 611 281 l 594 308 b 496 390 571 347 533 374 l 496 390 b 367 431 456 410 413 422 l 365 431 l 364 432 l 364 432 b 263 465 317 440 281 453 l 263 465 b 247 479 253 471 249 476 l 247 479 b 244 490 244 483 244 485 l 244 490 b 267 522 244 497 249 510 l 267 522 b 350 547 285 536 315 547 l 350 547 b 478 496 394 547 433 525 l 478 496 b 581 515 513 472 558 482 l 581 515 b 558 618 601 550 592 596 l 558 618 l 558 618 b 350 694 514 649 446 694 l 350 694 b 179 643 286 694 228 676 l 179 643 b 97 490 133 608 97 554 l 97 490 b 121 403 97 458 106 428 l 121 403 b 217 322 146 365 179 340 l 217 322 b 338 286 253 306 294 294 l 339 286 l 339 286 l 339 286 l 339 286 b 450 247 389 276 431 261 l 450 247 b 468 231 461 240 467 235 l 468 231 b 472 217 471 226 472 224 l 472 217 b 447 175 472 206 467 192 l 447 175 b 353 149 425 161 390 149 l 353 149 b 200 210 299 147 236 179 l 200 210 b 96 199 169 236 121 232 l 96 199 b 106 96 71 168 75 121 z "},"—":{"ha":1247,"x_min":0,"x_max":0,"o":"m 171 346 l 1118 346 b 1197 425 1161 346 1197 382 b 1118 506 1197 469 1161 506 l 171 506 b 92 425 128 506 92 469 b 171 346 92 382 128 346 z "},"›":{"ha":432,"x_min":0,"x_max":0,"o":"m 163 675 b 93 606 124 675 94 644 b 111 558 93 588 99 574 l 260 364 l 114 175 b 94 128 103 163 94 144 b 163 58 94 90 124 58 b 225 92 188 58 211 72 l 400 317 b 421 365 413 333 421 347 b 400 415 421 385 413 399 l 221 644 b 163 675 208 661 189 675 z "},"‚":{"ha":319,"x_min":0,"x_max":0,"o":"m 75 -162 b 118 -201 75 -183 89 -201 b 249 -142 157 -201 211 -178 b 317 61 292 -97 317 -33 l 317 76 b 217 199 317 151 279 199 b 122 106 160 199 122 158 l 122 94 b 201 0 122 44 161 11 b 107 -125 204 -61 171 -104 b 75 -162 89 -129 75 -143 z "},"ª":{"ha":542,"x_min":0,"x_max":0,"o":"m 482 929 b 436 974 482 954 461 974 b 393 938 414 974 397 958 b 281 974 361 960 322 974 b 138 911 224 974 175 949 b 81 763 101 874 81 821 b 138 617 81 706 101 654 b 281 553 175 578 224 553 b 281 553 281 553 281 553 b 393 590 322 553 361 567 b 436 553 397 569 414 553 b 482 599 461 553 482 572 l 482 763 b 482 763 482 763 482 763 b 482 763 482 763 482 763 l 482 929 z m 360 675 b 281 643 339 657 311 643 b 203 675 250 643 222 657 b 171 763 182 697 171 729 b 203 850 171 799 182 829 b 281 883 222 872 250 883 b 360 850 311 883 339 872 b 392 763 379 829 392 799 b 360 675 392 729 379 697 z m 138 411 l 440 411 b 486 458 465 411 486 432 b 440 506 486 485 465 506 l 138 506 b 90 458 111 506 90 485 b 138 411 90 432 111 411 z "},"«":{"ha":715,"x_min":0,"x_max":0,"o":"m 683 58 b 753 128 722 58 751 89 b 735 174 753 146 747 158 l 586 368 l 732 558 b 751 606 743 571 751 588 b 683 675 751 643 722 675 b 621 642 658 675 635 661 l 446 415 b 425 367 433 400 425 385 b 446 318 425 349 433 335 l 625 88 b 683 58 638 71 657 58 z m 333 58 b 403 128 372 58 403 89 b 386 174 403 144 397 160 l 236 368 l 383 558 b 401 606 393 571 401 588 b 335 675 401 643 372 675 b 271 642 308 675 286 661 l 96 415 b 76 367 83 400 76 385 b 96 318 76 349 83 335 l 275 88 b 333 58 288 71 308 58 z "},"°":{"ha":625,"x_min":0,"x_max":0,"o":"m 335 529 b 565 754 456 529 565 633 l 565 757 b 335 981 565 878 456 981 b 103 757 213 981 103 878 l 103 754 b 335 529 103 633 213 529 z m 335 621 b 203 754 258 621 203 683 l 203 757 b 335 889 203 828 258 889 b 465 757 410 889 465 828 l 465 754 b 335 621 465 683 410 621 z "},"{":{"ha":667,"x_min":0,"x_max":0,"o":"m 547 -187 b 624 -131 590 -197 624 -171 b 585 -74 624 -97 601 -79 b 431 106 450 -32 431 11 b 433 208 431 133 433 179 b 289 399 433 317 382 368 b 433 589 381 428 433 481 b 431 692 433 618 431 664 b 585 871 431 786 450 829 b 624 928 601 876 624 894 b 547 985 624 968 590 994 b 275 717 332 938 275 851 b 278 617 275 696 278 640 b 147 465 278 514 242 469 b 76 399 103 463 76 436 b 147 332 76 361 103 335 b 278 182 242 329 278 283 b 275 82 278 158 275 103 b 547 -187 275 -54 332 -140 z "},"}":{"ha":667,"x_min":0,"x_max":0,"o":"m 150 985 b 74 928 107 994 74 968 b 114 871 74 894 96 876 b 267 692 247 829 267 786 b 264 589 267 664 264 618 b 408 399 264 481 315 429 b 264 208 317 369 264 317 b 267 106 264 179 267 133 b 114 -74 267 11 247 -32 b 74 -131 96 -79 74 -97 b 150 -187 74 -171 107 -197 b 422 82 365 -140 422 -54 b 419 182 422 103 419 158 b 551 332 419 283 457 329 b 621 399 594 335 621 361 b 551 465 621 436 594 463 b 419 617 457 469 419 514 b 422 717 419 640 422 696 b 150 985 422 851 365 938 z "},"~":{"ha":639,"x_min":0,"x_max":0,"o":"m 214 343 b 279 388 231 374 246 388 b 478 332 328 388 401 332 b 619 458 553 332 590 378 b 625 490 624 468 625 482 b 574 538 625 514 601 538 b 529 508 553 538 538 524 b 464 465 513 478 497 465 b 265 519 415 465 342 519 b 124 393 190 519 153 474 b 118 363 119 385 118 369 b 169 315 118 338 142 315 b 214 343 190 315 206 328 z "},"|":{"ha":397,"x_min":0,"x_max":0,"o":"m 168 -118 b 235 -185 168 -156 199 -185 b 303 -118 272 -185 303 -156 l 303 1049 b 235 1115 303 1086 272 1115 b 168 1049 199 1115 168 1086 z "},"ƒ":{"ha":703,"x_min":0,"x_max":0,"o":"m 168 -10 b 400 199 296 -10 374 50 l 453 494 l 590 494 b 661 564 631 494 661 525 b 590 635 661 603 631 635 l 478 635 l 494 731 b 607 839 508 807 542 839 b 640 836 621 839 635 836 b 710 906 679 836 710 867 b 647 976 710 944 681 972 b 575 981 624 979 601 981 b 332 765 425 981 358 906 l 307 635 l 236 635 b 165 564 197 635 165 603 b 236 494 165 525 197 494 l 283 494 l 235 224 b 147 131 224 163 197 135 b 78 61 106 128 78 99 b 168 -10 78 18 111 -10 z "},"þ":{"ha":917,"x_min":0,"x_max":0,"o":""},"¿":{"ha":742,"x_min":0,"x_max":0,"o":"m 343 811 b 411 879 382 811 411 842 l 411 904 b 343 972 411 943 382 972 b 275 904 307 972 275 943 l 275 879 b 343 811 275 842 307 811 z m 636 292 b 411 575 636 429 540 544 l 411 665 b 343 733 411 704 382 733 b 275 665 307 733 275 704 l 275 521 b 276 518 275 519 276 519 b 275 515 275 517 275 517 b 343 447 275 479 307 447 b 501 292 431 447 501 378 b 343 136 501 204 431 136 b 210 213 286 136 236 167 b 115 238 190 246 149 257 b 92 144 83 218 72 178 b 343 0 142 58 236 0 b 636 292 504 0 636 131 z "},"Ã":{"ha":922,"x_min":0,"x_max":0,"o":"m 710 49 b 781 0 721 18 750 0 b 807 4 790 0 800 1 b 853 104 847 19 867 64 l 546 922 b 472 971 533 953 504 972 b 399 922 442 972 411 953 l 92 104 b 138 4 78 64 97 19 b 164 0 146 1 154 0 b 236 49 194 0 224 18 l 304 229 l 642 229 l 710 49 z m 360 382 l 472 681 l 585 382 l 360 382 z m 317 1115 b 381 1160 333 1146 349 1160 b 581 1104 431 1160 504 1104 b 722 1231 654 1104 693 1150 b 728 1263 725 1240 728 1254 b 676 1308 728 1286 704 1308 b 631 1281 656 1308 640 1296 b 567 1236 614 1250 599 1236 b 367 1292 517 1236 443 1292 b 225 1165 293 1292 254 1246 b 219 1133 222 1156 219 1142 b 271 1088 219 1110 243 1088 b 317 1115 293 1088 307 1100 z "},"Æ":{"ha":1451,"x_min":0,"x_max":0,"o":"m 49 63 b 124 -8 49 22 82 -8 b 199 39 157 -8 181 8 l 311 235 l 678 235 l 678 86 b 764 0 678 38 715 0 l 1306 0 b 1382 76 1347 0 1382 33 b 1306 153 1382 118 1347 153 l 849 153 l 849 414 l 1236 414 b 1313 489 1278 414 1313 447 b 1236 567 1313 532 1278 567 l 849 567 l 849 819 l 1299 819 b 1375 896 1340 819 1375 853 b 1299 972 1375 938 1340 972 l 631 972 b 531 913 582 972 551 950 l 63 111 b 49 63 54 99 49 79 z m 399 386 l 650 824 l 678 824 l 678 386 z "},"§":{"ha":878,"x_min":0,"x_max":0,"o":""},"Ð":{"ha":1128,"x_min":0,"x_max":0,"o":"m 158 407 l 210 407 l 210 76 b 286 0 210 35 243 0 l 450 0 b 935 488 718 0 935 218 b 450 972 935 754 718 972 l 286 972 b 210 896 243 972 210 939 l 210 572 l 158 572 b 76 489 114 572 76 535 b 158 407 76 444 114 407 z m 364 818 l 450 818 b 781 488 633 818 781 669 b 450 154 781 303 633 156 l 364 154 l 364 407 l 419 407 b 501 489 464 407 501 444 b 419 572 501 535 464 572 l 364 572 z "},"×":{"ha":861,"x_min":0,"x_max":0,"o":"m 728 668 b 753 722 743 682 753 701 b 679 796 753 764 721 796 b 626 772 658 796 640 788 l 447 590 l 269 772 b 214 796 256 786 238 796 b 139 721 172 796 139 763 b 161 665 139 697 149 679 l 344 488 l 164 310 b 139 254 149 296 139 276 b 211 182 139 214 171 182 b 265 206 233 182 251 190 l 444 388 l 622 204 b 678 182 636 192 654 182 b 753 257 719 182 753 215 b 729 313 753 281 743 299 l 547 490 z "},"Ø":{"ha":1181,"x_min":0,"x_max":0,"o":"m 608 -17 b 1118 486 907 -17 1118 213 l 1118 489 b 1004 811 1118 611 1076 724 l 1069 879 b 1093 932 1082 892 1093 910 b 1033 986 1093 961 1068 986 b 981 963 1013 986 994 976 l 914 894 b 611 989 832 954 728 989 b 101 486 313 989 101 760 l 101 483 b 215 161 101 361 143 249 l 150 93 b 126 42 138 81 126 63 b 186 -14 126 11 151 -14 b 239 10 208 -14 226 -4 l 306 76 b 608 -17 388 18 490 -17 z m 278 486 l 278 489 b 608 835 278 679 415 835 b 800 772 682 835 747 811 l 336 288 b 278 486 299 344 278 413 z m 611 138 b 418 199 538 138 472 160 l 883 685 b 942 486 919 628 942 560 l 942 483 b 611 138 942 293 804 138 z "},"^":{"ha":694,"x_min":0,"x_max":0,"o":"m 350 868 l 450 739 b 551 678 488 690 510 678 b 590 706 574 678 590 689 b 575 747 590 718 585 732 l 443 928 b 357 978 419 960 396 978 l 344 978 b 260 928 306 978 282 960 l 128 747 b 111 706 117 732 111 718 b 150 678 111 689 128 678 b 250 739 190 678 213 690 z "},"_":{"ha":833,"x_min":0,"x_max":0,"o":"m 32 -222 l 871 -222 b 936 -157 907 -222 936 -193 b 871 -92 936 -121 907 -92 l 32 -92 b -33 -157 -4 -92 -33 -121 b 32 -222 -33 -193 -4 -222 z "},"¸":{"ha":694,"x_min":0,"x_max":0,"o":"m 472 14 l 346 14 l 247 -129 b 236 -161 240 -139 236 -150 b 333 -222 236 -190 300 -222 b 388 -182 363 -222 376 -208 z "},"ˆ":{"ha":694,"x_min":0,"x_max":0,"o":"m 408 919 l 481 857 b 583 819 518 826 544 819 b 624 847 606 819 624 829 b 607 881 624 857 615 869 l 515 996 b 435 1036 496 1021 474 1036 l 385 1036 b 304 996 346 1036 325 1021 l 213 881 b 196 847 204 869 196 857 b 233 819 196 829 213 819 b 336 857 272 819 300 826 z "},"Š":{"ha":889,"x_min":0,"x_max":0,"o":"m 406 1265 b 303 1303 369 1296 342 1303 b 265 1275 282 1303 265 1293 b 282 1242 265 1265 274 1253 l 374 1126 b 454 1086 394 1101 415 1086 l 504 1086 b 585 1126 543 1086 565 1101 l 676 1242 b 693 1275 685 1253 693 1265 b 653 1303 693 1293 675 1303 b 550 1265 614 1303 588 1296 l 478 1203 z m 125 140 l 125 140 b 481 1 204 78 331 3 l 481 1 b 738 81 579 1 669 31 l 738 81 b 857 296 807 131 857 207 l 857 296 b 824 414 857 339 844 381 l 824 414 b 685 529 792 465 742 501 l 685 529 b 493 588 629 556 564 574 l 493 588 l 490 588 l 490 588 b 317 649 415 601 353 624 l 317 649 b 279 685 299 661 286 674 l 279 685 b 269 724 272 696 269 707 l 269 724 b 322 811 269 753 285 783 l 322 811 b 478 858 360 839 415 858 l 478 858 b 701 769 563 858 631 817 l 701 769 b 800 790 735 747 779 757 l 800 790 b 781 889 822 822 813 867 l 781 889 b 478 1000 710 935 611 1000 l 478 1000 b 238 926 388 1000 303 974 l 238 926 b 126 724 174 879 126 807 l 126 724 b 158 610 126 682 138 643 l 158 610 b 288 501 189 561 235 526 l 288 501 b 467 447 340 476 401 460 l 467 447 l 469 447 l 469 447 b 660 382 551 432 619 408 l 660 382 b 701 340 681 368 693 354 l 701 340 b 714 296 710 326 714 314 l 714 296 b 654 196 714 261 696 226 l 654 196 b 481 144 613 165 550 144 l 481 144 b 215 251 382 143 276 201 l 215 251 b 114 242 185 276 139 272 l 114 242 b 125 140 90 211 94 165 z "},"¥":{"ha":953,"x_min":0,"x_max":0,"o":"m 563 367 l 776 367 b 838 428 810 367 838 394 b 776 490 838 463 810 490 l 608 490 l 867 840 b 888 900 879 857 888 876 b 806 979 888 949 850 979 b 728 931 769 979 744 956 l 482 569 l 239 932 b 158 979 219 961 194 979 b 74 899 110 979 74 942 b 94 840 74 878 81 860 l 350 490 l 185 490 b 124 428 151 490 124 463 b 185 367 124 394 151 367 l 399 367 l 399 265 l 185 265 b 124 203 151 265 124 238 b 185 142 124 169 151 142 l 399 142 l 399 75 b 481 -7 399 29 435 -7 b 563 75 526 -7 563 29 l 563 142 l 776 142 b 838 203 810 142 838 169 b 776 265 838 238 810 265 l 563 265 z "},"»":{"ha":715,"x_min":0,"x_max":0,"o":"m 700 58 b 769 128 739 58 768 89 b 751 174 769 146 764 158 l 603 368 l 749 558 b 768 606 760 571 768 588 b 700 675 768 643 739 675 b 638 642 675 675 651 661 l 463 415 b 442 367 450 400 442 385 b 463 318 442 349 450 335 l 642 88 b 700 58 654 71 674 58 z m 350 58 b 419 128 389 58 419 89 b 403 174 419 144 414 160 l 253 368 l 400 558 b 418 606 410 571 418 588 b 351 675 418 643 389 675 b 288 642 325 675 303 661 l 113 415 b 93 367 100 400 93 385 b 113 318 93 349 100 335 l 292 88 b 350 58 304 71 325 58 z "},"¨":{"ha":694,"x_min":0,"x_max":0,"o":"m 185 883 b 274 794 185 833 224 794 b 364 883 324 794 364 833 b 274 974 364 933 324 974 b 185 883 224 974 185 933 z m 463 883 b 551 794 463 833 501 794 b 642 883 601 794 642 833 b 551 974 642 933 601 974 b 463 883 501 974 463 933 z "},"‹":{"ha":432,"x_min":0,"x_max":0,"o":"m 335 675 b 276 644 308 675 289 661 l 97 415 b 76 365 85 399 76 385 b 97 317 76 347 85 333 l 272 92 b 335 58 286 72 310 58 b 403 128 374 58 403 90 b 383 175 403 144 394 163 l 238 364 l 386 558 b 404 606 399 574 404 588 b 335 675 403 644 374 675 z "},"Ÿ":{"ha":994,"x_min":0,"x_max":0,"o":"m 804 947 b 697 931 771 972 724 965 l 460 606 l 222 931 b 117 947 199 965 151 972 b 101 842 82 922 75 875 l 383 451 l 383 76 b 460 0 383 33 419 0 b 536 76 503 0 536 33 l 536 451 l 821 842 b 804 947 844 875 838 922 z m 231 1161 b 319 1072 231 1111 269 1072 b 410 1161 369 1072 410 1111 b 319 1251 410 1211 369 1251 b 231 1161 269 1251 231 1211 z m 508 1161 b 597 1072 508 1111 547 1072 b 688 1161 647 1072 688 1111 b 597 1251 688 1211 647 1251 b 508 1161 547 1251 508 1211 z "},"´":{"ha":694,"x_min":0,"x_max":0,"o":"m 321 819 b 419 857 360 819 386 826 l 513 946 b 536 988 526 958 536 972 b 436 1042 536 1014 481 1042 b 369 1001 407 1042 385 1026 l 290 879 b 279 849 285 871 279 858 b 321 819 279 831 297 819 z "},"`":{"ha":694,"x_min":0,"x_max":0,"o":"m 442 819 b 485 849 467 819 485 831 b 472 879 485 858 478 871 l 393 1001 b 326 1042 378 1026 356 1042 b 226 988 282 1042 226 1014 b 250 946 226 972 236 958 l 344 857 b 442 819 376 826 403 819 z "},"Á":{"ha":897,"x_min":0,"x_max":0,"o":"m 708 49 b 779 0 719 18 749 0 b 806 4 789 0 799 1 b 851 104 846 19 865 64 l 544 922 b 471 971 532 953 503 972 b 397 922 440 972 410 953 l 90 104 b 136 4 76 64 96 19 b 163 0 144 1 153 0 b 235 49 193 0 222 18 l 303 229 l 640 229 l 708 49 z m 358 382 l 471 681 l 583 382 l 358 382 z m 388 1097 b 486 1135 426 1097 453 1104 l 579 1224 b 603 1265 593 1236 603 1250 b 503 1319 603 1292 547 1319 b 436 1279 474 1319 451 1304 l 357 1157 b 346 1126 351 1149 346 1136 b 388 1097 346 1108 364 1097 z "},"À":{"ha":901,"x_min":0,"x_max":0,"o":"m 708 49 b 779 0 719 18 749 0 b 806 4 789 0 799 1 b 851 104 846 19 865 64 l 544 922 b 471 971 532 953 503 972 b 397 922 440 972 410 953 l 90 104 b 136 4 76 64 96 19 b 163 0 144 1 153 0 b 235 49 193 0 222 18 l 303 229 l 640 229 l 708 49 z m 358 382 l 471 681 l 583 382 l 358 382 z m 556 1097 b 599 1126 581 1097 599 1108 b 586 1157 599 1136 592 1149 l 507 1279 b 440 1319 492 1304 469 1319 b 340 1265 396 1319 340 1292 b 364 1224 340 1250 350 1236 l 458 1135 b 556 1097 490 1104 517 1097 z "},"Â":{"ha":922,"x_min":0,"x_max":0,"o":"m 710 49 b 781 0 721 18 750 0 b 807 4 790 0 800 1 b 853 104 847 19 867 64 l 546 922 b 472 971 533 953 504 972 b 399 922 442 972 411 953 l 92 104 b 138 4 78 64 97 19 b 164 0 146 1 154 0 b 236 49 194 0 224 18 l 304 229 l 642 229 l 710 49 z m 360 382 l 472 681 l 585 382 l 360 382 z m 471 1197 l 543 1135 b 646 1097 581 1104 607 1097 b 686 1125 668 1097 686 1107 b 669 1158 686 1135 678 1147 l 578 1274 b 497 1314 558 1299 536 1314 l 447 1314 b 367 1274 408 1314 388 1299 l 275 1158 b 258 1125 267 1147 258 1135 b 296 1097 258 1107 275 1097 b 399 1135 335 1097 363 1104 z "},"Ä":{"ha":921,"x_min":0,"x_max":0,"o":"m 710 49 b 781 0 721 18 750 0 b 807 4 790 0 800 1 b 853 104 847 19 867 64 l 546 922 b 472 971 533 953 504 972 b 399 922 442 972 411 953 l 92 104 b 138 4 78 64 97 19 b 164 0 146 1 154 0 b 236 49 194 0 224 18 l 304 229 l 642 229 l 710 49 z m 360 382 l 472 681 l 585 382 l 360 382 z m 246 1161 b 335 1072 246 1111 285 1072 b 425 1161 385 1072 425 1111 b 335 1251 425 1211 385 1251 b 246 1161 285 1251 246 1211 z m 524 1161 b 613 1072 524 1111 563 1072 b 703 1161 663 1072 703 1111 b 613 1251 703 1211 663 1251 b 524 1161 563 1251 524 1211 z "},"È":{"ha":824,"x_min":0,"x_max":0,"o":"m 221 0 b 222 1 221 0 222 1 b 225 0 222 1 222 0 l 675 0 b 751 76 715 0 751 35 b 675 154 751 119 715 154 l 299 154 l 299 410 l 622 410 b 699 488 664 410 699 444 b 622 564 699 528 664 564 l 299 564 l 299 818 l 675 818 b 751 896 715 818 751 853 b 675 972 751 939 715 972 l 225 972 b 222 972 222 972 222 972 b 221 972 222 972 221 972 b 144 896 178 972 144 939 l 144 76 b 221 0 144 35 178 0 z m 538 1097 b 581 1126 563 1097 581 1108 b 568 1157 581 1136 574 1149 l 489 1279 b 422 1319 474 1304 451 1319 b 322 1265 378 1319 322 1292 b 346 1224 322 1250 332 1236 l 440 1135 b 538 1097 472 1104 499 1097 z "},"É":{"ha":824,"x_min":0,"x_max":0,"o":"m 221 0 b 222 1 221 0 222 1 b 225 0 222 1 222 0 l 675 0 b 751 76 715 0 751 35 b 675 154 751 119 715 154 l 299 154 l 299 410 l 622 410 b 699 488 664 410 699 444 b 622 564 699 528 664 564 l 299 564 l 299 818 l 675 818 b 751 896 715 818 751 853 b 675 972 751 939 715 972 l 225 972 b 222 972 222 972 222 972 b 221 972 222 972 221 972 b 144 896 178 972 144 939 l 144 76 b 221 0 144 35 178 0 z m 364 1097 b 463 1135 403 1097 429 1104 l 556 1224 b 579 1265 569 1236 579 1250 b 479 1319 579 1292 524 1319 b 413 1279 450 1319 428 1304 l 333 1157 b 322 1126 328 1149 322 1136 b 364 1097 322 1108 340 1097 z "},"Ê":{"ha":824,"x_min":0,"x_max":0,"o":"m 221 0 b 222 1 221 0 222 1 b 225 0 222 1 222 0 l 675 0 b 751 76 715 0 751 35 b 675 154 751 119 715 154 l 299 154 l 299 410 l 622 410 b 699 488 664 410 699 444 b 622 564 699 528 664 564 l 299 564 l 299 818 l 675 818 b 751 896 715 818 751 853 b 675 972 751 939 715 972 l 225 972 b 222 972 222 972 222 972 b 221 972 222 972 221 972 b 144 896 178 972 144 939 l 144 76 b 221 0 144 35 178 0 z m 447 1197 l 519 1135 b 622 1097 557 1104 583 1097 b 663 1125 644 1097 663 1107 b 646 1158 663 1135 654 1147 l 554 1274 b 474 1314 535 1299 513 1314 l 424 1314 b 343 1274 385 1314 364 1299 l 251 1158 b 235 1125 243 1147 235 1135 b 272 1097 235 1107 251 1097 b 375 1135 311 1097 339 1104 z "},"Ë":{"ha":931,"x_min":0,"x_max":0,"o":"m 221 0 b 222 1 221 0 222 1 b 225 0 222 1 222 0 l 675 0 b 751 76 715 0 751 35 b 675 154 751 119 715 154 l 299 154 l 299 410 l 622 410 b 699 488 664 410 699 444 b 622 564 699 528 664 564 l 299 564 l 299 818 l 675 818 b 751 896 715 818 751 853 b 675 972 751 939 715 972 l 225 972 b 222 972 222 972 222 972 b 221 972 222 972 221 972 b 144 896 178 972 144 939 l 144 76 b 221 0 144 35 178 0 z m 221 1161 b 310 1072 221 1111 260 1072 b 400 1161 360 1072 400 1111 b 310 1251 400 1211 360 1251 b 221 1161 260 1251 221 1211 z m 499 1161 b 588 1072 499 1111 538 1072 b 678 1161 638 1072 678 1111 b 588 1251 678 1211 638 1251 b 499 1161 538 1251 499 1211 z "},"Ì":{"ha":483,"x_min":0,"x_max":0,"o":"m 224 76 l 224 896 b 300 972 224 939 257 972 l 300 972 b 378 896 342 972 378 939 l 378 896 l 378 76 b 300 0 378 33 342 0 l 300 0 b 224 76 257 0 224 33 l 224 76 z m 386 1097 b 429 1126 411 1097 429 1108 b 417 1157 429 1136 422 1149 l 338 1279 b 271 1319 322 1304 300 1319 b 171 1265 226 1319 171 1292 b 194 1224 171 1250 181 1236 l 289 1135 b 386 1097 321 1104 347 1097 z "},"Í":{"ha":381,"x_min":0,"x_max":0,"o":"m 115 76 l 115 896 b 192 972 115 939 149 972 l 192 972 b 269 896 233 972 269 939 l 269 896 l 269 76 b 192 0 269 33 233 0 l 192 0 b 115 76 149 0 115 33 l 115 76 z m 107 1097 b 206 1135 146 1097 172 1104 l 299 1224 b 322 1265 313 1236 322 1250 b 222 1319 322 1292 267 1319 b 156 1279 193 1319 171 1304 l 76 1157 b 65 1126 71 1149 65 1136 b 107 1097 65 1108 83 1097 z "},"Î":{"ha":381,"x_min":0,"x_max":0,"o":"m 142 76 l 142 896 b 218 972 142 939 175 972 l 218 972 b 296 896 260 972 296 939 l 296 896 l 296 76 b 218 0 296 33 260 0 l 218 0 b 142 76 175 0 142 33 l 142 76 z m 215 1197 l 288 1135 b 390 1097 325 1104 351 1097 b 431 1125 413 1097 431 1107 b 414 1158 431 1135 422 1147 l 322 1274 b 242 1314 303 1299 281 1314 l 192 1314 b 111 1274 153 1314 132 1299 l 19 1158 b 3 1125 11 1147 3 1135 b 40 1097 3 1107 19 1097 b 143 1135 79 1097 107 1104 z "},"Ï":{"ha":381,"x_min":0,"x_max":0,"o":"m 142 76 l 142 896 b 218 972 142 939 175 972 l 218 972 b 296 896 260 972 296 939 l 296 896 l 296 76 b 218 0 296 33 260 0 l 218 0 b 142 76 175 0 142 33 l 142 76 z m -11 1161 b 78 1072 -11 1111 28 1072 b 168 1161 128 1072 168 1111 b 78 1251 168 1211 128 1251 b -11 1161 28 1251 -11 1211 z m 267 1161 b 356 1072 267 1111 306 1072 b 446 1161 406 1072 446 1111 b 356 1251 446 1211 406 1251 b 267 1161 306 1251 267 1211 z "},"Ñ":{"ha":1097,"x_min":0,"x_max":0,"o":"m 297 653 l 742 36 b 749 28 743 33 746 31 b 806 0 763 11 783 0 b 882 76 847 0 882 35 l 882 883 b 806 958 882 924 847 958 b 731 883 764 958 731 924 l 731 311 l 282 932 b 176 949 258 965 211 972 b 146 885 156 933 144 908 b 146 883 146 883 146 883 l 146 76 b 222 0 146 35 179 0 b 297 76 263 0 297 35 l 297 653 z m 357 1115 b 421 1160 374 1146 389 1160 b 621 1104 471 1160 544 1104 b 763 1231 694 1104 733 1150 b 768 1263 765 1240 768 1254 b 717 1308 768 1286 744 1308 b 671 1281 696 1308 681 1296 b 607 1236 654 1250 639 1236 b 407 1292 557 1236 483 1292 b 265 1165 333 1292 294 1246 b 260 1133 263 1156 260 1142 b 311 1088 260 1110 283 1088 b 357 1115 333 1088 347 1100 z "},"Ò":{"ha":1181,"x_min":0,"x_max":0,"o":"m 579 1000 b 239 851 446 1000 324 943 b 101 500 153 760 101 638 b 239 149 101 363 153 239 b 579 0 324 58 446 0 b 579 0 579 0 579 0 b 911 149 707 0 829 58 b 1051 500 997 239 1051 363 b 911 851 1051 638 997 760 b 579 1000 829 943 707 1000 z m 799 258 b 579 158 740 196 663 158 b 354 258 490 158 413 196 b 260 500 296 318 260 406 b 354 743 260 594 296 682 b 579 842 413 806 490 842 b 799 743 663 842 740 806 b 893 500 856 682 893 594 b 799 258 893 406 856 318 z m 667 1097 b 710 1126 692 1097 710 1108 b 697 1157 710 1136 703 1149 l 618 1279 b 551 1319 603 1304 581 1319 b 451 1265 507 1319 451 1292 b 475 1224 451 1250 461 1236 l 569 1135 b 667 1097 601 1104 628 1097 z "},"Ó":{"ha":1181,"x_min":0,"x_max":0,"o":"m 579 1000 b 239 851 446 1000 324 943 b 101 500 153 760 101 638 b 239 149 101 363 153 239 b 579 0 324 58 446 0 b 579 0 579 0 579 0 b 911 149 707 0 829 58 b 1051 500 997 239 1051 363 b 911 851 1051 638 997 760 b 579 1000 829 943 707 1000 z m 799 258 b 579 158 740 196 663 158 b 354 258 490 158 413 196 b 260 500 296 318 260 406 b 354 743 260 594 296 682 b 579 842 413 806 490 842 b 799 743 663 842 740 806 b 893 500 856 682 893 594 b 799 258 893 406 856 318 z m 494 1097 b 593 1135 533 1097 560 1104 l 686 1224 b 710 1265 700 1236 710 1250 b 610 1319 710 1292 654 1319 b 543 1279 581 1319 558 1304 l 464 1157 b 453 1126 458 1149 453 1136 b 494 1097 453 1108 471 1097 z "},"Ô":{"ha":1181,"x_min":0,"x_max":0,"o":"m 579 1000 b 239 851 446 1000 324 943 b 101 500 153 760 101 638 b 239 149 101 363 153 239 b 579 0 324 58 446 0 b 579 0 579 0 579 0 b 911 149 707 0 829 58 b 1051 500 997 239 1051 363 b 911 851 1051 638 997 760 b 579 1000 829 943 707 1000 z m 799 258 b 579 158 740 196 663 158 b 354 258 490 158 413 196 b 260 500 296 318 260 406 b 354 743 260 594 296 682 b 579 842 413 806 490 842 b 799 743 663 842 740 806 b 893 500 856 682 893 594 b 799 258 893 406 856 318 z m 575 1197 l 647 1135 b 750 1097 685 1104 711 1097 b 790 1125 772 1097 790 1107 b 774 1158 790 1135 782 1147 l 682 1274 b 601 1314 663 1299 640 1314 l 551 1314 b 471 1274 513 1314 492 1299 l 379 1158 b 363 1125 371 1147 363 1135 b 400 1097 363 1107 379 1097 b 503 1135 439 1097 467 1104 z "},"Õ":{"ha":1181,"x_min":0,"x_max":0,"o":"m 579 1000 b 239 851 446 1000 324 943 b 101 500 153 760 101 638 b 239 149 101 363 153 239 b 579 0 324 58 446 0 b 579 0 579 0 579 0 b 911 149 707 0 829 58 b 1051 500 997 239 1051 363 b 911 851 1051 638 997 760 b 579 1000 829 943 707 1000 z m 799 258 b 579 158 740 196 663 158 b 354 258 490 158 413 196 b 260 500 296 318 260 406 b 354 743 260 594 296 682 b 579 842 413 806 490 842 b 799 743 663 842 740 806 b 893 500 856 682 893 594 b 799 258 893 406 856 318 z m 421 1115 b 485 1160 438 1146 453 1160 b 685 1104 535 1160 608 1104 b 826 1231 758 1104 797 1150 b 832 1263 829 1240 832 1254 b 781 1308 832 1286 808 1308 b 735 1281 760 1308 744 1296 b 671 1236 718 1250 703 1236 b 471 1292 621 1236 547 1292 b 329 1165 397 1292 358 1246 b 324 1133 326 1156 324 1142 b 375 1088 324 1110 347 1088 b 421 1115 397 1088 411 1100 z "},"Ö":{"ha":1181,"x_min":0,"x_max":0,"o":"m 579 1000 b 239 851 446 1000 324 943 b 101 500 153 760 101 638 b 239 149 101 363 153 239 b 579 0 324 58 446 0 b 579 0 579 0 579 0 b 911 149 707 0 829 58 b 1051 500 997 239 1051 363 b 911 851 1051 638 997 760 b 579 1000 829 943 707 1000 z m 799 258 b 579 158 740 196 663 158 b 354 258 490 158 413 196 b 260 500 296 318 260 406 b 354 743 260 594 296 682 b 579 842 413 806 490 842 b 799 743 663 842 740 806 b 893 500 856 682 893 594 b 799 258 893 406 856 318 z m 349 1161 b 438 1072 349 1111 388 1072 b 528 1161 488 1072 528 1111 b 438 1251 528 1211 488 1251 b 349 1161 388 1251 349 1211 z m 626 1161 b 715 1072 626 1111 665 1072 b 806 1161 765 1072 806 1111 b 715 1251 806 1211 765 1251 b 626 1161 665 1251 626 1211 z "},"Ù":{"ha":1056,"x_min":0,"x_max":0,"o":"m 932 401 l 932 896 b 856 972 932 939 899 972 b 778 896 813 972 778 939 l 778 401 b 531 154 778 265 668 154 b 283 401 394 154 283 265 l 283 896 b 206 972 283 939 247 972 b 129 896 163 972 129 939 l 129 401 b 531 0 129 181 307 0 b 932 401 753 0 932 181 z m 617 1097 b 660 1126 642 1097 660 1108 b 647 1157 660 1136 653 1149 l 568 1279 b 501 1319 553 1304 531 1319 b 401 1265 457 1319 401 1292 b 425 1224 401 1250 411 1236 l 519 1135 b 617 1097 551 1104 578 1097 z "},"Ú":{"ha":1056,"x_min":0,"x_max":0,"o":"m 932 401 l 932 896 b 856 972 932 939 899 972 b 778 896 813 972 778 939 l 778 401 b 531 154 778 265 668 154 b 283 401 394 154 283 265 l 283 896 b 206 972 283 939 247 972 b 129 896 163 972 129 939 l 129 401 b 531 0 129 181 307 0 b 932 401 753 0 932 181 z m 444 1097 b 543 1135 483 1097 510 1104 l 636 1224 b 660 1265 650 1236 660 1250 b 560 1319 660 1292 604 1319 b 493 1279 531 1319 508 1304 l 414 1157 b 403 1126 408 1149 403 1136 b 444 1097 403 1108 421 1097 z "},"Û":{"ha":1056,"x_min":0,"x_max":0,"o":"m 932 401 l 932 896 b 856 972 932 939 899 972 b 778 896 813 972 778 939 l 778 401 b 531 154 778 265 668 154 b 283 401 394 154 283 265 l 283 896 b 206 972 283 939 247 972 b 129 896 163 972 129 939 l 129 401 b 531 0 129 181 307 0 b 932 401 753 0 932 181 z m 528 1197 l 600 1135 b 703 1097 638 1104 664 1097 b 743 1125 725 1097 743 1107 b 726 1158 743 1135 735 1147 l 635 1274 b 554 1314 615 1299 593 1314 l 504 1314 b 424 1274 465 1314 444 1299 l 332 1158 b 315 1125 324 1147 315 1135 b 353 1097 315 1107 332 1097 b 456 1135 392 1097 419 1104 z "},"Ü":{"ha":1056,"x_min":0,"x_max":0,"o":"m 932 401 l 932 896 b 856 972 932 939 899 972 b 778 896 813 972 778 939 l 778 401 b 531 154 778 265 668 154 b 283 401 394 154 283 265 l 283 896 b 206 972 283 939 247 972 b 129 896 163 972 129 939 l 129 401 b 531 0 129 181 307 0 b 932 401 753 0 932 181 z m 300 1161 b 389 1072 300 1111 339 1072 b 479 1161 439 1072 479 1111 b 389 1251 479 1211 439 1251 b 300 1161 339 1251 300 1211 z m 578 1161 b 667 1072 578 1111 617 1072 b 757 1161 717 1072 757 1111 b 667 1251 757 1211 717 1251 b 578 1161 617 1251 578 1211 z "},"Ý":{"ha":994,"x_min":0,"x_max":0,"o":"m 804 947 b 697 931 771 972 724 965 l 460 606 l 222 931 b 117 947 199 965 151 972 b 101 842 82 922 75 875 l 383 451 l 383 76 b 460 0 383 33 419 0 b 536 76 503 0 536 33 l 536 451 l 821 842 b 804 947 844 875 838 922 z m 421 1097 b 519 1135 460 1097 486 1104 l 613 1224 b 636 1265 626 1236 636 1250 b 536 1319 636 1292 581 1319 b 469 1279 507 1319 485 1304 l 390 1157 b 379 1126 385 1149 379 1136 b 421 1097 379 1108 397 1097 z "},"à":{"ha":797,"x_min":0,"x_max":0,"o":"m 749 619 b 675 694 749 661 715 694 b 603 633 639 694 611 668 b 418 694 550 671 488 694 b 182 590 324 694 242 654 b 88 346 122 528 88 442 b 182 101 88 251 122 165 b 418 0 242 39 324 0 b 418 0 418 0 418 0 b 603 60 488 0 550 22 b 675 0 611 26 639 0 b 749 74 715 0 749 33 l 749 346 b 749 346 749 346 749 346 b 749 346 749 346 749 346 l 749 619 z m 547 203 b 418 149 514 168 467 149 b 289 203 368 149 321 168 b 236 346 256 239 236 289 b 289 489 236 404 256 454 b 418 546 321 526 368 546 b 547 489 467 546 514 526 b 601 346 581 454 601 404 b 547 203 601 289 581 239 z m 538 792 b 581 821 563 792 581 803 b 568 851 581 831 574 843 l 489 974 b 422 1014 474 999 451 1014 b 322 960 378 1014 322 986 b 346 918 322 944 332 931 l 440 829 b 538 792 472 799 499 792 z "},"á":{"ha":797,"x_min":0,"x_max":0,"o":"m 749 619 b 675 694 749 661 715 694 b 603 633 639 694 611 668 b 418 694 550 671 488 694 b 182 590 324 694 242 654 b 88 346 122 528 88 442 b 182 101 88 251 122 165 b 418 0 242 39 324 0 b 418 0 418 0 418 0 b 603 60 488 0 550 22 b 675 0 611 26 639 0 b 749 74 715 0 749 33 l 749 346 b 749 346 749 346 749 346 b 749 346 749 346 749 346 l 749 619 z m 547 203 b 418 149 514 168 467 149 b 289 203 368 149 321 168 b 236 346 256 239 236 289 b 289 489 236 404 256 454 b 418 546 321 526 368 546 b 547 489 467 546 514 526 b 601 346 581 454 601 404 b 547 203 601 289 581 239 z m 490 792 b 589 829 529 792 556 799 l 682 918 b 706 960 696 931 706 944 b 606 1014 706 986 650 1014 b 539 974 576 1014 554 999 l 460 851 b 449 821 454 843 449 831 b 490 792 449 803 467 792 z "},"â":{"ha":797,"x_min":0,"x_max":0,"o":"m 749 619 b 675 694 749 661 715 694 b 603 633 639 694 611 668 b 418 694 550 671 488 694 b 182 590 324 694 242 654 b 88 346 122 528 88 442 b 182 101 88 251 122 165 b 418 0 242 39 324 0 b 418 0 418 0 418 0 b 603 60 488 0 550 22 b 675 0 611 26 639 0 b 749 74 715 0 749 33 l 749 346 b 749 346 749 346 749 346 b 749 346 749 346 749 346 l 749 619 z m 547 203 b 418 149 514 168 467 149 b 289 203 368 149 321 168 b 236 346 256 239 236 289 b 289 489 236 404 256 454 b 418 546 321 526 368 546 b 547 489 467 546 514 526 b 601 346 581 454 601 404 b 547 203 601 289 581 239 z m 417 892 l 489 829 b 592 792 526 799 553 792 b 632 819 614 792 632 801 b 615 853 632 829 624 842 l 524 968 b 443 1008 504 993 482 1008 l 393 1008 b 313 968 354 1008 333 993 l 221 853 b 204 819 213 842 204 829 b 242 792 204 801 221 792 b 344 829 281 792 308 799 z "},"ã":{"ha":797,"x_min":0,"x_max":0,"o":"m 749 619 b 675 694 749 661 715 694 b 603 633 639 694 611 668 b 418 694 550 671 488 694 b 182 590 324 694 242 654 b 88 346 122 528 88 442 b 182 101 88 251 122 165 b 418 0 242 39 324 0 b 418 0 418 0 418 0 b 603 60 488 0 550 22 b 675 0 611 26 639 0 b 749 74 715 0 749 33 l 749 346 b 749 346 749 346 749 346 b 749 346 749 346 749 346 l 749 619 z m 547 203 b 418 149 514 168 467 149 b 289 203 368 149 321 168 b 236 346 256 239 236 289 b 289 489 236 404 256 454 b 418 546 321 526 368 546 b 547 489 467 546 514 526 b 601 346 581 454 601 404 b 547 203 601 289 581 239 z m 261 819 b 325 864 278 850 293 864 b 525 808 375 864 449 808 b 667 935 599 808 638 854 b 672 967 669 944 672 958 b 621 1013 672 990 649 1013 b 575 985 600 1013 585 1000 b 511 940 558 954 543 940 b 311 996 461 940 388 996 b 169 869 238 996 199 950 b 164 838 167 860 164 846 b 215 792 164 814 188 792 b 261 819 238 792 251 804 z "},"ä":{"ha":797,"x_min":0,"x_max":0,"o":"m 749 619 b 675 694 749 661 715 694 b 603 633 639 694 611 668 b 418 694 550 671 488 694 b 182 590 324 694 242 654 b 88 346 122 528 88 442 b 182 101 88 251 122 165 b 418 0 242 39 324 0 b 418 0 418 0 418 0 b 603 60 488 0 550 22 b 675 0 611 26 639 0 b 749 74 715 0 749 33 l 749 346 b 749 346 749 346 749 346 b 749 346 749 346 749 346 l 749 619 z m 547 203 b 418 149 514 168 467 149 b 289 203 368 149 321 168 b 236 346 256 239 236 289 b 289 489 236 404 256 454 b 418 546 321 526 368 546 b 547 489 467 546 514 526 b 601 346 581 454 601 404 b 547 203 601 289 581 239 z m 190 881 b 279 792 190 831 229 792 b 369 881 329 792 369 831 b 279 971 369 931 329 971 b 190 881 229 971 190 931 z m 468 881 b 557 792 468 831 507 792 b 647 881 607 792 647 831 b 557 971 647 931 607 971 b 468 881 507 971 468 931 z "},"Ç":{"ha":1071,"x_min":0,"x_max":0,"o":"m 611 0 b 932 108 733 0 844 40 b 946 219 965 135 971 185 b 835 235 918 253 867 258 b 611 158 772 185 697 158 b 361 258 515 158 426 197 b 260 500 299 319 260 406 b 361 742 260 594 299 678 b 611 842 426 803 515 842 b 835 765 697 842 774 815 b 946 781 867 740 918 746 b 932 892 971 815 965 864 b 611 1000 844 960 733 1000 b 101 500 333 999 103 775 b 611 0 103 224 333 0 z m 653 14 l 526 14 l 428 -129 b 417 -161 421 -139 417 -150 b 514 -222 417 -190 481 -222 b 568 -182 543 -222 557 -208 z "},"ç":{"ha":793,"x_min":0,"x_max":0,"o":"m 433 0 b 433 0 433 0 433 0 b 654 74 517 0 594 31 b 669 176 686 101 692 146 b 565 192 642 210 596 215 b 433 147 529 165 483 147 b 228 346 321 147 228 239 b 433 546 228 453 321 546 b 565 501 485 546 529 528 b 669 515 597 476 642 482 b 654 618 692 546 686 593 b 433 694 594 664 517 694 b 81 346 242 693 81 539 b 433 0 81 156 242 0 z m 514 14 l 388 14 l 289 -129 b 278 -161 282 -139 278 -150 b 375 -222 278 -190 342 -222 b 429 -182 404 -222 418 -208 z "},"è":{"ha":846,"x_min":0,"x_max":0,"o":"m 419 0 b 668 92 518 0 600 29 b 668 182 700 121 686 163 b 564 178 650 204 593 208 b 419 143 529 151 469 139 b 286 206 371 147 315 172 b 239 297 261 229 246 265 l 681 297 b 753 353 719 297 749 319 b 754 365 754 356 754 363 b 754 365 754 365 754 365 b 754 365 754 365 754 365 b 754 372 754 368 754 371 b 419 694 743 560 600 694 b 81 347 229 694 82 536 b 419 0 82 158 229 1 z m 419 563 b 625 415 540 553 611 471 l 232 415 b 419 563 243 472 301 557 z m 501 792 b 544 821 526 792 544 803 b 532 851 544 831 538 843 l 453 974 b 386 1014 438 999 415 1014 b 286 960 342 1014 286 986 b 310 918 286 944 296 931 l 404 829 b 501 792 436 799 463 792 z "},"é":{"ha":846,"x_min":0,"x_max":0,"o":"m 419 0 b 668 92 518 0 600 29 b 668 182 700 121 686 163 b 564 178 650 204 593 208 b 419 143 529 151 469 139 b 286 206 371 147 315 172 b 239 297 261 229 246 265 l 681 297 b 753 353 719 297 749 319 b 754 365 754 356 754 363 b 754 365 754 365 754 365 b 754 365 754 365 754 365 b 754 372 754 368 754 371 b 419 694 743 560 600 694 b 81 347 229 694 82 536 b 419 0 82 158 229 1 z m 419 563 b 625 415 540 553 611 471 l 232 415 b 419 563 243 472 301 557 z m 329 792 b 428 829 368 792 394 799 l 521 918 b 544 960 535 931 544 944 b 444 1014 544 986 489 1014 b 378 974 415 1014 393 999 l 299 851 b 288 821 293 843 288 831 b 329 792 288 803 306 792 z "},"ê":{"ha":846,"x_min":0,"x_max":0,"o":"m 419 0 b 668 92 518 0 600 29 b 668 182 700 121 686 163 b 564 178 650 204 593 208 b 419 143 529 151 469 139 b 286 206 371 147 315 172 b 239 297 261 229 246 265 l 681 297 b 753 353 719 297 749 319 b 754 365 754 356 754 363 b 754 365 754 365 754 365 b 754 365 754 365 754 365 b 754 372 754 368 754 371 b 419 694 743 560 600 694 b 81 347 229 694 82 536 b 419 0 82 158 229 1 z m 419 563 b 625 415 540 553 611 471 l 232 415 b 419 563 243 472 301 557 z m 417 892 l 489 829 b 592 792 526 799 553 792 b 632 819 614 792 632 801 b 615 853 632 829 624 842 l 524 968 b 443 1008 504 993 482 1008 l 393 1008 b 313 968 354 1008 333 993 l 221 853 b 204 819 213 842 204 829 b 242 792 204 801 221 792 b 344 829 281 792 308 799 z "},"ë":{"ha":811,"x_min":0,"x_max":0,"o":"m 424 0 b 672 92 522 0 604 29 b 672 182 704 121 690 163 b 568 178 654 204 597 208 b 424 143 533 151 474 139 b 290 206 375 147 319 172 b 243 297 265 229 250 265 l 685 297 b 757 353 724 297 753 319 b 758 365 758 356 758 363 b 758 365 758 365 758 365 b 758 365 758 365 758 365 b 758 372 758 368 758 371 b 424 694 747 560 604 694 b 85 347 233 694 86 536 b 424 0 86 158 233 1 z m 424 563 b 629 415 544 553 615 471 l 236 415 b 424 563 247 472 306 557 z m 193 881 b 282 792 193 831 232 792 b 372 881 332 792 372 831 b 282 971 372 931 332 971 b 193 881 232 971 193 931 z m 471 881 b 560 792 471 831 510 792 b 650 881 610 792 650 831 b 560 971 650 931 610 971 b 471 881 510 971 471 931 z "},"ì":{"ha":390,"x_min":0,"x_max":0,"o":"m 164 693 b 89 617 122 693 89 661 l 89 75 b 164 0 89 33 122 0 b 239 75 207 0 239 33 l 239 617 b 164 693 239 661 207 693 z m 249 792 b 292 821 274 792 292 803 b 279 851 292 831 285 843 l 200 974 b 133 1014 185 999 163 1014 b 33 960 89 1014 33 986 b 57 918 33 944 43 931 l 151 829 b 249 792 183 799 210 792 z "},"í":{"ha":390,"x_min":0,"x_max":0,"o":"m 144 693 b 69 617 103 693 69 661 l 69 75 b 144 0 69 33 103 0 b 219 75 188 0 219 33 l 219 617 b 144 693 219 661 188 693 z m 61 792 b 160 829 100 792 126 799 l 253 918 b 276 960 267 931 276 944 b 176 1014 276 986 221 1014 b 110 974 147 1014 125 999 l 31 851 b 19 821 25 843 19 831 b 61 792 19 803 38 792 z "},"î":{"ha":390,"x_min":0,"x_max":0,"o":"m 226 693 b 151 617 185 693 151 661 l 151 75 b 226 0 151 33 185 0 b 301 75 269 0 301 33 l 301 617 b 226 693 301 661 269 693 z m 225 892 l 297 829 b 400 792 335 799 361 792 b 440 819 422 792 440 801 b 424 853 440 829 432 842 l 332 968 b 251 1008 313 993 290 1008 l 201 1008 b 121 968 163 1008 142 993 l 29 853 b 13 819 21 842 13 829 b 50 792 13 801 29 792 b 153 829 89 792 117 799 z "},"ï":{"ha":390,"x_min":0,"x_max":0,"o":"m 221 693 b 146 617 179 693 146 661 l 146 75 b 221 0 146 33 179 0 b 296 75 264 0 296 33 l 296 617 b 221 693 296 661 264 693 z m -8 881 b 81 792 -8 831 31 792 b 171 881 131 792 171 831 b 81 971 171 931 131 971 b -8 881 31 971 -8 931 z m 269 881 b 358 792 269 831 308 792 b 449 881 408 792 449 831 b 358 971 449 931 408 971 b 269 881 308 971 269 931 z "},"ñ":{"ha":851,"x_min":0,"x_max":0,"o":"m 419 694 b 272 651 365 694 314 678 b 204 694 260 678 233 694 b 131 621 163 694 131 661 l 131 406 b 131 406 131 406 131 406 l 131 74 b 204 0 131 33 163 0 b 278 60 240 0 271 26 b 281 74 281 65 281 69 l 281 74 l 281 406 b 419 546 281 483 342 546 b 564 406 499 546 564 483 l 564 74 b 638 0 564 33 599 0 b 710 74 678 0 710 33 l 710 406 b 419 694 710 563 581 694 z m 263 819 b 326 864 279 850 294 864 b 526 808 376 864 450 808 b 668 935 600 808 639 854 b 674 967 671 944 674 958 b 622 1013 674 990 650 1013 b 576 985 601 1013 586 1000 b 513 940 560 954 544 940 b 313 996 463 940 389 996 b 171 869 239 996 200 950 b 165 838 168 860 165 846 b 217 792 165 814 189 792 b 263 819 239 792 253 804 z "},"ò":{"ha":889,"x_min":0,"x_max":0,"o":"m 415 -4 b 415 -4 415 -4 415 -4 b 647 101 507 -4 590 36 b 744 346 710 163 744 249 l 744 346 b 647 589 744 440 710 522 b 415 694 590 654 507 694 b 176 589 319 694 239 654 b 81 346 117 522 81 440 b 176 101 81 249 117 163 b 415 -4 239 36 319 -4 z m 282 490 b 415 543 317 521 363 543 b 543 490 464 543 508 521 b 597 346 578 453 597 403 l 597 346 b 543 199 597 286 578 238 b 415 147 508 165 464 147 b 282 199 363 147 317 165 b 232 346 250 238 232 286 b 282 490 232 403 250 453 z m 499 792 b 542 821 524 792 542 803 b 529 851 542 831 535 843 l 450 974 b 383 1014 435 999 413 1014 b 283 960 339 1014 283 986 b 307 918 283 944 293 931 l 401 829 b 499 792 433 799 460 792 z "},"ó":{"ha":889,"x_min":0,"x_max":0,"o":"m 415 -4 b 415 -4 415 -4 415 -4 b 647 101 507 -4 590 36 b 744 346 710 163 744 249 l 744 346 b 647 589 744 440 710 522 b 415 694 590 654 507 694 b 176 589 319 694 239 654 b 81 346 117 522 81 440 b 176 101 81 249 117 163 b 415 -4 239 36 319 -4 z m 282 490 b 415 543 317 521 363 543 b 543 490 464 543 508 521 b 597 346 578 453 597 403 l 597 346 b 543 199 597 286 578 238 b 415 147 508 165 464 147 b 282 199 363 147 317 165 b 232 346 250 238 232 286 b 282 490 232 403 250 453 z m 322 792 b 421 829 361 792 388 799 l 514 918 b 538 960 528 931 538 944 b 438 1014 538 986 482 1014 b 371 974 408 1014 386 999 l 292 851 b 281 821 286 843 281 831 b 322 792 281 803 299 792 z "},"ô":{"ha":889,"x_min":0,"x_max":0,"o":"m 415 -4 b 415 -4 415 -4 415 -4 b 647 101 507 -4 590 36 b 744 346 710 163 744 249 l 744 346 b 647 589 744 440 710 522 b 415 694 590 654 507 694 b 176 589 319 694 239 654 b 81 346 117 522 81 440 b 176 101 81 249 117 163 b 415 -4 239 36 319 -4 z m 282 490 b 415 543 317 521 363 543 b 543 490 464 543 508 521 b 597 346 578 453 597 403 l 597 346 b 543 199 597 286 578 238 b 415 147 508 165 464 147 b 282 199 363 147 317 165 b 232 346 250 238 232 286 b 282 490 232 403 250 453 z m 411 892 l 483 829 b 586 792 521 799 547 792 b 626 819 608 792 626 801 b 610 853 626 829 618 842 l 518 968 b 438 1008 499 993 476 1008 l 388 1008 b 307 968 349 1008 328 993 l 215 853 b 199 819 207 842 199 829 b 236 792 199 801 215 792 b 339 829 275 792 303 799 z "},"õ":{"ha":889,"x_min":0,"x_max":0,"o":"m 415 -4 b 415 -4 415 -4 415 -4 b 647 101 507 -4 590 36 b 744 346 710 163 744 249 l 744 346 b 647 589 744 440 710 522 b 415 694 590 654 507 694 b 176 589 319 694 239 654 b 81 346 117 522 81 440 b 176 101 81 249 117 163 b 415 -4 239 36 319 -4 z m 282 490 b 415 543 317 521 363 543 b 543 490 464 543 508 521 b 597 346 578 453 597 403 l 597 346 b 543 199 597 286 578 238 b 415 147 508 165 464 147 b 282 199 363 147 317 165 b 232 346 250 238 232 286 b 282 490 232 403 250 453 z m 256 819 b 319 864 272 850 288 864 b 519 808 369 864 443 808 b 661 935 593 808 632 854 b 667 967 664 944 667 958 b 615 1013 667 990 643 1013 b 569 985 594 1013 579 1000 b 506 940 553 954 538 940 b 306 996 456 940 382 996 b 164 869 232 996 193 950 b 158 838 161 860 158 846 b 210 792 158 814 182 792 b 256 819 232 792 246 804 z "},"ö":{"ha":889,"x_min":0,"x_max":0,"o":"m 415 -4 b 415 -4 415 -4 415 -4 b 647 101 507 -4 590 36 b 744 346 710 163 744 249 l 744 346 b 647 589 744 440 710 522 b 415 694 590 654 507 694 b 176 589 319 694 239 654 b 81 346 117 522 81 440 b 176 101 81 249 117 163 b 415 -4 239 36 319 -4 z m 282 490 b 415 543 317 521 363 543 b 543 490 464 543 508 521 b 597 346 578 453 597 403 l 597 346 b 543 199 597 286 578 238 b 415 147 508 165 464 147 b 282 199 363 147 317 165 b 232 346 250 238 232 286 b 282 490 232 403 250 453 z m 185 881 b 274 792 185 831 224 792 b 364 881 324 792 364 831 b 274 971 364 931 324 971 b 185 881 224 971 185 931 z m 463 881 b 551 792 463 831 501 792 b 642 881 601 792 642 831 b 551 971 642 931 601 971 b 463 881 501 971 463 931 z "},"ù":{"ha":851,"x_min":0,"x_max":0,"o":"m 697 289 l 697 621 b 622 694 697 660 661 694 b 550 621 581 694 550 660 l 550 621 l 550 289 b 404 147 549 210 485 147 b 263 289 325 147 263 210 l 263 621 b 189 694 263 660 231 694 b 115 621 149 694 115 660 l 115 289 b 404 0 115 131 246 0 b 697 289 564 0 697 131 z m 493 792 b 536 821 518 792 536 803 b 524 851 536 831 529 843 l 444 974 b 378 1014 429 999 407 1014 b 278 960 333 1014 278 986 b 301 918 278 944 288 931 l 396 829 b 493 792 428 799 454 792 z "},"ú":{"ha":851,"x_min":0,"x_max":0,"o":"m 697 289 l 697 621 b 622 694 697 660 661 694 b 550 621 581 694 550 660 l 550 621 l 550 289 b 404 147 549 210 485 147 b 263 289 325 147 263 210 l 263 621 b 189 694 263 660 231 694 b 115 621 149 694 115 660 l 115 289 b 404 0 115 131 246 0 b 697 289 564 0 697 131 z m 317 792 b 415 829 356 792 382 799 l 508 918 b 532 960 522 931 532 944 b 432 1014 532 986 476 1014 b 365 974 403 1014 381 999 l 286 851 b 275 821 281 843 275 831 b 317 792 275 803 293 792 z "},"û":{"ha":851,"x_min":0,"x_max":0,"o":"m 697 289 l 697 621 b 622 694 697 660 661 694 b 550 621 581 694 550 660 l 550 621 l 550 289 b 404 147 549 210 485 147 b 263 289 325 147 263 210 l 263 621 b 189 694 263 660 231 694 b 115 621 149 694 115 660 l 115 289 b 404 0 115 131 246 0 b 697 289 564 0 697 131 z m 406 892 l 478 829 b 581 792 515 799 542 792 b 621 819 603 792 621 801 b 604 853 621 829 613 842 l 513 968 b 432 1008 493 993 471 1008 l 382 1008 b 301 968 343 1008 322 993 l 210 853 b 193 819 201 842 193 829 b 231 792 193 801 210 792 b 333 829 269 792 297 799 z "},"ü":{"ha":851,"x_min":0,"x_max":0,"o":"m 697 289 l 697 621 b 622 694 697 660 661 694 b 550 621 581 694 550 660 l 550 621 l 550 289 b 404 147 549 210 485 147 b 263 289 325 147 263 210 l 263 621 b 189 694 263 660 231 694 b 115 621 149 694 115 660 l 115 289 b 404 0 115 131 246 0 b 697 289 564 0 697 131 z m 178 879 b 267 790 178 829 217 790 b 357 879 317 790 357 829 b 267 969 357 929 317 969 b 178 879 217 969 178 929 z m 456 879 b 544 790 456 829 494 790 b 635 879 594 790 635 829 b 544 969 635 929 594 969 b 456 879 494 969 456 929 z "},"ý":{"ha":817,"x_min":0,"x_max":0,"o":"m 578 694 b 506 621 536 694 506 663 l 506 293 b 363 151 506 213 442 151 b 218 293 283 151 218 213 l 218 621 b 144 694 218 663 188 694 b 72 621 107 694 72 663 l 72 293 b 363 1 72 133 203 1 b 494 35 408 1 456 13 b 321 -92 472 -37 403 -90 b 240 -72 293 -92 267 -85 b 142 -103 207 -54 160 -69 b 178 -201 125 -142 139 -185 b 321 -236 219 -222 271 -236 b 653 96 506 -236 653 -90 l 653 293 b 653 293 653 293 653 293 l 653 621 b 578 694 653 663 618 694 z m 303 792 b 401 829 342 792 368 799 l 494 918 b 518 960 508 931 518 944 b 418 1014 518 986 463 1014 b 351 974 389 1014 367 999 l 272 851 b 261 821 267 843 261 831 b 303 792 261 803 279 792 z "},"ÿ":{"ha":817,"x_min":0,"x_max":0,"o":"m 578 694 b 506 621 536 694 506 663 l 506 293 b 363 151 506 213 442 151 b 218 293 283 151 218 213 l 218 621 b 144 694 218 663 188 694 b 72 621 107 694 72 663 l 72 293 b 363 1 72 133 203 1 b 494 35 408 1 456 13 b 321 -92 472 -37 403 -90 b 240 -72 293 -92 267 -85 b 142 -103 207 -54 160 -69 b 178 -201 125 -142 139 -185 b 321 -236 219 -222 271 -236 b 653 96 506 -236 653 -90 l 653 293 b 653 293 653 293 653 293 l 653 621 b 578 694 653 663 618 694 z m 133 881 b 222 792 133 831 172 792 b 313 881 272 792 313 831 b 222 971 313 931 272 971 b 133 881 172 971 133 931 z m 411 881 b 500 792 411 831 450 792 b 590 881 550 792 590 831 b 500 971 590 931 550 971 b 411 881 450 971 411 931 z "},"Å":{"ha":897,"x_min":0,"x_max":0,"o":"m 342 382 l 454 681 l 567 382 l 342 382 z m 692 49 b 763 0 703 18 732 0 b 789 4 772 0 782 1 b 835 104 829 19 849 64 l 546 874 b 631 1017 596 904 631 957 l 631 1019 b 453 1190 631 1113 546 1190 b 275 1019 360 1190 275 1113 l 275 1017 b 361 872 275 957 311 903 l 74 104 b 119 4 60 64 79 19 b 146 0 128 1 136 0 b 218 49 176 0 206 18 l 286 229 l 624 229 z m 453 951 b 386 1017 415 951 386 981 l 386 1019 b 453 1085 386 1056 415 1085 b 519 1019 490 1085 519 1056 l 519 1017 b 453 951 519 981 490 951 z "},"Œ":{"ha":2004,"x_min":0,"x_max":0,"o":"m 993 0 l 994 1 b 997 0 994 1 994 0 l 1447 0 b 1524 76 1488 0 1524 35 b 1447 154 1524 119 1488 154 l 1071 154 l 1071 410 l 1394 410 b 1471 488 1436 410 1471 444 b 1394 564 1471 528 1436 564 l 1071 564 l 1071 818 l 1447 818 b 1524 896 1488 818 1524 853 b 1447 972 1524 939 1488 972 l 993 972 b 917 896 950 972 917 939 l 917 844 b 911 851 914 847 913 849 b 579 1000 829 943 707 1000 b 239 851 446 1000 324 943 b 101 500 153 760 101 638 b 239 149 101 363 153 239 b 579 0 324 58 446 0 b 911 149 707 0 829 58 b 917 154 913 150 914 153 l 917 76 b 993 0 917 35 950 0 z m 799 258 b 579 158 740 196 663 158 b 354 258 490 158 413 196 b 260 500 296 318 260 406 b 354 743 260 594 296 682 b 579 842 413 806 490 842 b 799 743 663 842 740 806 b 893 500 856 682 893 594 b 799 258 893 406 856 318 z "}}}
